<?xml version="1.0" standalone="no"?>
<!DOCTYPE svg PUBLIC "-//W3C//DTD SVG 1.1//EN" "http://www.w3.org/Graphics/SVG/1.1/DTD/svg11.dtd">
<svg xmlns="http://www.w3.org/2000/svg" xmlns:xlink="http://www.w3.org/1999/xlink" width="375" zoomAndPan="magnify" viewBox="0 0 375 374.999991" height="375" preserveAspectRatio="xMidYMid meet" version="1.0"><defs><g/><clipPath id="4b1b917305"><path d="M 160 56.972656 L 295 56.972656 L 295 133 L 160 133 Z M 160 56.972656 " clip-rule="nonzero"/></clipPath><clipPath id="5594c4f88d"><path d="M 292 63 L 328.390625 63 L 328.390625 132 L 292 132 Z M 292 63 " clip-rule="nonzero"/></clipPath></defs><g clip-path="url(#4b1b917305)"><path fill="#231f20" d="M 192.453125 95.824219 L 173.59375 120.578125 L 160.851562 132.507812 C 160.851562 132.507812 167.558594 128.410156 172.476562 126.171875 C 177.398438 123.9375 183.359375 114.988281 197.96875 95.898438 C 212.574219 76.808594 238.582031 67.410156 238.582031 67.410156 C 250.132812 63.011719 270.554688 66.292969 270.554688 66.292969 C 287.621094 70.394531 289.855469 69.050781 289.855469 69.050781 C 283.96875 65.695312 258.257812 61.96875 253.117188 61.371094 C 247.972656 60.773438 249.460938 59.953125 249.460938 59.953125 C 253.5625 58.390625 279.050781 61.671875 279.050781 61.671875 C 282.480469 63.90625 284.046875 64.058594 286.058594 64.203125 C 288.070312 64.355469 291.421875 67.039062 291.421875 67.039062 L 294.476562 67.1875 C 294.476562 67.1875 284.191406 59.804688 280.765625 58.761719 C 277.339844 57.71875 247.152344 56.972656 247.152344 56.972656 C 247.152344 56.972656 220.621094 66.816406 218.460938 69.351562 C 216.300781 71.886719 211.15625 74.199219 211.15625 74.199219 C 199.679688 79.121094 187.980469 93.882812 181.046875 102.832031 C 174.117188 111.78125 172.328125 119.832031 172.328125 119.832031 L 173.746094 118.492188 L 183.136719 103.839844 C 185.820312 103.800781 185.519531 101.042969 185.519531 101.042969 L 187.011719 98.65625 C 188.351562 97.464844 191.484375 93.363281 191.484375 93.363281 C 192.152344 90.527344 195.132812 88.214844 195.132812 88.214844 C 199.605469 85.457031 205.046875 81.207031 206.015625 79.863281 C 206.984375 78.523438 212.945312 75.167969 212.945312 75.167969 L 213.839844 75.988281 C 205.046875 81.355469 192.453125 95.824219 192.453125 95.824219 " fill-opacity="1" fill-rule="nonzero"/></g><path fill="#231f20" d="M 221.21875 89.632812 C 231.800781 70.695312 269.660156 68.304688 269.660156 68.304688 C 251.785156 67.359375 243.425781 65.027344 219.132812 86.648438 C 194.835938 108.277344 207.207031 131.09375 207.207031 131.09375 C 204.078125 98.132812 221.21875 89.632812 221.21875 89.632812 " fill-opacity="1" fill-rule="nonzero"/><path fill="#231f20" d="M 238.871094 133.15625 C 238.914062 133.660156 238.953125 133.925781 238.953125 133.925781 C 238.953125 133.925781 238.972656 133.660156 239.003906 133.152344 C 239.035156 132.652344 239.109375 131.917969 239.207031 130.980469 C 239.308594 130.050781 239.460938 128.925781 239.65625 127.640625 C 239.863281 126.351562 240.136719 124.914062 240.484375 123.359375 C 240.832031 121.808594 241.277344 120.140625 241.824219 118.414062 C 242.378906 116.6875 243.050781 114.898438 243.863281 113.113281 C 244.675781 111.328125 245.632812 109.539062 246.746094 107.828125 C 247.863281 106.121094 249.144531 104.484375 250.59375 103.019531 C 252.03125 101.539062 253.625 100.226562 255.304688 99.089844 C 255.734375 98.816406 256.160156 98.546875 256.585938 98.277344 C 257.035156 98.011719 257.480469 97.75 257.921875 97.488281 C 258.816406 96.964844 259.695312 96.449219 260.5625 95.941406 C 262.292969 94.9375 263.972656 93.964844 265.574219 93.0625 C 267.171875 92.152344 268.695312 91.320312 270.101562 90.472656 C 270.453125 90.261719 270.800781 90.035156 271.132812 89.8125 C 271.457031 89.566406 271.792969 89.351562 272.074219 89.074219 C 272.671875 88.5625 273.125 87.984375 273.542969 87.460938 C 274.351562 86.398438 274.96875 85.4375 275.492188 84.65625 C 276.019531 83.875 276.414062 83.25 276.691406 82.828125 C 276.96875 82.402344 277.113281 82.175781 277.113281 82.175781 C 277.113281 82.175781 276.929688 82.375 276.585938 82.746094 C 276.25 83.117188 275.738281 83.65625 275.117188 84.367188 C 274.492188 85.066406 273.730469 85.929688 272.851562 86.867188 C 272.398438 87.320312 271.925781 87.792969 271.355469 88.171875 C 271.085938 88.382812 270.769531 88.554688 270.460938 88.746094 C 270.132812 88.921875 269.796875 89.097656 269.445312 89.269531 C 268.734375 89.613281 267.972656 89.960938 267.183594 90.324219 C 266.390625 90.6875 265.582031 91.070312 264.742188 91.46875 C 263.074219 92.269531 261.324219 93.148438 259.53125 94.09375 C 258.625 94.554688 257.742188 95.054688 256.824219 95.546875 C 256.367188 95.792969 255.90625 96.046875 255.445312 96.300781 C 254.980469 96.582031 254.511719 96.867188 254.042969 97.152344 C 252.191406 98.335938 250.453125 99.761719 248.886719 101.355469 C 248.507812 101.765625 248.113281 102.160156 247.753906 102.585938 C 247.398438 103.015625 247.042969 103.445312 246.691406 103.871094 C 246.363281 104.316406 246.035156 104.765625 245.707031 105.207031 C 245.394531 105.664062 245.105469 106.128906 244.800781 106.582031 C 243.644531 108.4375 242.691406 110.367188 241.921875 112.285156 C 241.152344 114.199219 240.558594 116.101562 240.105469 117.925781 C 239.648438 119.75 239.355469 121.5 239.140625 123.117188 C 238.917969 124.738281 238.808594 126.230469 238.753906 127.550781 C 238.691406 128.867188 238.707031 130.019531 238.734375 130.964844 C 238.757812 131.910156 238.824219 132.652344 238.871094 133.15625 " fill-opacity="1" fill-rule="nonzero"/><path fill="#231f20" d="M 297.085938 149.636719 L 297.683594 152.71875 C 297.683594 152.71875 301.261719 156.695312 298.675781 157.789062 C 296.089844 158.882812 292.714844 158.484375 291.222656 154.308594 C 289.730469 150.132812 293.011719 145.757812 293.011719 145.757812 L 279.992188 131.09375 L 289.832031 130.050781 L 278.007812 126.46875 C 278.007812 126.46875 264.394531 122.59375 269.660156 104.496094 L 282.628906 83.367188 C 282.628906 83.367188 269.960938 95.152344 266.976562 103.703125 C 263.996094 112.253906 258.023438 116.03125 258.023438 116.03125 C 258.023438 116.03125 262.703125 125.277344 266.976562 128.160156 C 271.25 131.042969 271.546875 133.925781 271.546875 133.925781 C 271.546875 133.925781 280.59375 141.78125 283.871094 143.570312 C 287.148438 145.363281 289.238281 158.089844 289.238281 158.089844 L 301.554688 162.261719 C 301.554688 162.261719 303.945312 152.71875 297.085938 149.636719 " fill-opacity="1" fill-rule="nonzero"/><path fill="#231f20" d="M 242.648438 166.714844 C 242.699219 166.960938 242.761719 167.171875 242.828125 167.332031 C 242.828125 167.332031 242.761719 167.117188 242.648438 166.714844 " fill-opacity="1" fill-rule="nonzero"/><path fill="#231f20" d="M 264.195312 142.976562 L 255.648438 122.394531 L 252.074219 122.816406 C 250.679688 124.53125 249.6875 133.925781 249.6875 133.925781 L 248.097656 133.925781 L 246.308594 138.351562 C 244.71875 133.925781 246.109375 129.851562 246.109375 129.851562 C 253.660156 113.941406 263.402344 109.371094 263.402344 109.371094 L 258.023438 109.371094 C 232.429688 127.050781 241.210938 161.691406 242.648438 166.714844 C 241.496094 161.363281 244.222656 137.109375 244.222656 137.109375 L 246.011719 154.210938 L 247.699219 144.070312 C 247.699219 146.554688 253.5625 156.695312 253.5625 156.695312 C 250.183594 145.363281 253.066406 127.464844 253.066406 127.464844 C 253.5625 131.144531 264.195312 142.976562 264.195312 142.976562 " fill-opacity="1" fill-rule="nonzero"/><g clip-path="url(#5594c4f88d)"><path fill="#231f20" d="M 314.078125 103.800781 L 314.078125 108.050781 C 314.078125 108.050781 310.800781 105.886719 312.589844 113.941406 C 314.375 121.996094 328.386719 131.09375 328.386719 131.09375 C 318.25 120.804688 317.359375 111.257812 317.359375 111.257812 C 321.828125 116.925781 327.195312 118.414062 327.195312 118.414062 C 319.742188 112.75 319.144531 102.308594 319.144531 102.308594 C 314.375 80.238281 309.90625 83.070312 309.90625 83.070312 C 317.539062 96.683594 315.269531 102.308594 315.269531 102.308594 C 304.238281 85.011719 305.730469 79.640625 305.730469 79.640625 C 317.058594 70.992188 319.144531 63.832031 319.144531 63.832031 C 316.164062 65.917969 292.316406 72.183594 292.316406 72.183594 L 308.710938 70.839844 L 299.542969 80.089844 C 302.453125 80.757812 303.046875 82.175781 303.046875 82.175781 L 306.328125 96.34375 C 306.328125 96.34375 297.683594 95.898438 305.433594 97.464844 C 313.183594 99.03125 310.351562 105.8125 310.351562 105.8125 L 302.824219 105.515625 C 302.601562 112.300781 308.265625 112.824219 308.265625 112.824219 L 314.078125 103.800781 " fill-opacity="1" fill-rule="nonzero"/></g><path fill="#231f20" d="M 302.074219 120.261719 C 301.988281 119.726562 301.890625 119.1875 301.792969 118.652344 C 301.699219 118.109375 301.589844 117.578125 301.480469 117.050781 C 301.378906 116.527344 301.246094 116.015625 301.128906 115.519531 C 301.007812 115.027344 300.878906 114.550781 300.757812 114.101562 C 300.625 113.652344 300.503906 113.230469 300.390625 112.84375 C 300.152344 112.0625 299.953125 111.417969 299.792969 110.96875 C 299.632812 110.523438 299.542969 110.269531 299.542969 110.269531 L 299.398438 110.308594 C 299.398438 110.308594 299.449219 110.570312 299.535156 111.039062 C 299.617188 111.5 299.742188 112.164062 299.871094 112.960938 C 299.933594 113.359375 300 113.792969 300.066406 114.246094 C 300.132812 114.703125 300.199219 115.183594 300.269531 115.6875 C 300.328125 116.183594 300.398438 116.695312 300.453125 117.21875 C 300.511719 117.742188 300.570312 118.273438 300.605469 118.804688 C 300.625 119.070312 300.65625 119.335938 300.664062 119.601562 C 300.671875 119.863281 300.675781 120.128906 300.683594 120.390625 C 300.703125 120.914062 300.691406 121.421875 300.714844 121.914062 C 300.757812 122.410156 300.753906 122.878906 300.800781 123.328125 C 300.820312 123.554688 300.835938 123.773438 300.84375 123.984375 C 300.851562 124.195312 300.863281 124.398438 300.878906 124.59375 C 300.925781 124.996094 300.90625 125.34375 300.925781 125.671875 C 300.933594 125.835938 300.945312 125.984375 300.953125 126.125 C 300.953125 126.265625 300.949219 126.394531 300.945312 126.511719 C 300.945312 126.980469 300.964844 127.269531 300.964844 127.269531 L 301.105469 127.3125 C 301.105469 127.3125 301.253906 127.074219 301.46875 126.628906 C 301.523438 126.515625 301.582031 126.386719 301.644531 126.253906 C 301.6875 126.113281 301.738281 125.960938 301.789062 125.796875 C 301.84375 125.632812 301.886719 125.457031 301.941406 125.269531 C 301.964844 125.175781 301.992188 125.082031 302.019531 124.984375 C 302.039062 124.886719 302.054688 124.785156 302.074219 124.683594 C 302.136719 124.269531 302.230469 123.8125 302.25 123.339844 C 302.265625 123.101562 302.273438 122.855469 302.28125 122.605469 C 302.296875 122.355469 302.28125 122.101562 302.269531 121.839844 C 302.226562 121.324219 302.179688 120.792969 302.074219 120.261719 " fill-opacity="1" fill-rule="nonzero"/><path fill="#231f20" d="M 310.800781 116.429688 C 308.414062 130.347656 318.449219 150.132812 318.449219 150.132812 C 309.210938 150.035156 311.195312 159.382812 311.195312 159.382812 C 308.445312 159.414062 305.234375 162.261719 305.234375 162.261719 C 307.023438 164.054688 309.605469 163.753906 309.605469 163.753906 L 316.164062 157.09375 C 316.164062 157.09375 325.308594 155.996094 320.539062 147.746094 C 315.765625 139.496094 310.800781 116.429688 310.800781 116.429688 " fill-opacity="1" fill-rule="nonzero"/><path fill="#231f20" d="M 301.261719 65.402344 C 301.65625 65.574219 300.164062 67.730469 300.164062 67.730469 C 302.351562 67.058594 305.332031 63.832031 305.332031 63.832031 C 302.75 61.347656 296.488281 65.722656 296.488281 65.722656 C 296.488281 65.722656 300.863281 65.222656 301.261719 65.402344 " fill-opacity="1" fill-rule="nonzero"/><path fill="#231f20" d="M 251.890625 195.03125 C 251.597656 192.828125 251.15625 190.445312 250.429688 187.96875 C 250.074219 186.730469 249.617188 185.476562 249.097656 184.214844 C 248.574219 182.949219 247.933594 181.703125 247.230469 180.460938 C 245.796875 177.988281 243.941406 175.660156 241.988281 173.523438 C 240.058594 171.371094 238.0625 169.351562 236.808594 167.066406 L 236.539062 166.589844 L 236.261719 166.109375 L 235.957031 165.574219 L 235.632812 165.085938 C 235.414062 164.757812 235.195312 164.429688 234.960938 164.128906 C 234.730469 163.824219 234.507812 163.503906 234.265625 163.21875 L 233.554688 162.339844 L 232.820312 161.496094 C 232.335938 160.933594 231.828125 160.40625 231.328125 159.863281 C 230.324219 158.808594 229.304688 157.78125 228.273438 156.804688 C 227.25 155.816406 226.21875 154.867188 225.195312 153.953125 C 223.148438 152.113281 221.121094 150.40625 219.175781 148.816406 C 217.226562 147.226562 215.355469 145.765625 213.613281 144.4375 C 211.875 143.105469 210.25 141.921875 208.808594 140.882812 C 207.371094 139.835938 206.089844 138.960938 205.039062 138.234375 C 203.988281 137.503906 203.144531 136.964844 202.574219 136.582031 C 202 136.210938 201.691406 136.015625 201.691406 136.015625 C 201.691406 136.015625 201.960938 136.265625 202.460938 136.730469 C 202.964844 137.191406 203.691406 137.886719 204.632812 138.742188 C 206.511719 140.46875 209.1875 142.929688 212.402344 145.886719 C 214.003906 147.363281 215.738281 148.964844 217.558594 150.667969 C 219.375 152.371094 221.277344 154.179688 223.214844 156.070312 C 224.171875 157.023438 225.15625 157.988281 226.121094 158.980469 C 227.09375 159.96875 228.050781 160.996094 229 162.027344 C 229.9375 163.066406 230.863281 164.132812 231.710938 165.226562 C 231.933594 165.496094 232.121094 165.773438 232.328125 166.050781 C 232.542969 166.320312 232.722656 166.601562 232.90625 166.878906 L 233.179688 167.296875 L 233.414062 167.714844 L 233.675781 168.179688 L 233.9375 168.660156 C 234.09375 168.960938 234.339844 169.332031 234.558594 169.679688 C 234.777344 170.035156 235.007812 170.328125 235.230469 170.660156 C 235.464844 170.972656 235.703125 171.277344 235.941406 171.582031 C 236.183594 171.875 236.425781 172.175781 236.671875 172.457031 C 237.65625 173.605469 238.679688 174.644531 239.648438 175.679688 C 240.617188 176.714844 241.546875 177.730469 242.402344 178.773438 C 243.257812 179.816406 244.039062 180.886719 244.75 181.980469 C 246.148438 184.175781 247.253906 186.46875 248.085938 188.75 C 248.929688 191.023438 249.539062 193.261719 250.019531 195.359375 C 250.132812 195.886719 250.242188 196.402344 250.347656 196.90625 C 250.457031 197.410156 250.53125 197.90625 250.628906 198.390625 C 250.824219 199.359375 250.949219 200.285156 251.089844 201.15625 C 251.335938 202.902344 251.539062 204.433594 251.667969 205.699219 C 251.808594 206.964844 251.902344 207.960938 251.964844 208.640625 C 252.035156 209.324219 252.074219 209.6875 252.074219 209.6875 C 252.074219 209.6875 252.101562 209.324219 252.152344 208.640625 C 252.195312 207.960938 252.296875 206.953125 252.316406 205.675781 C 252.367188 204.394531 252.398438 202.835938 252.339844 201.046875 C 252.285156 199.257812 252.171875 197.234375 251.890625 195.03125 " fill-opacity="1" fill-rule="nonzero"/><path fill="#231f20" d="M 231.199219 200.636719 C 231.183594 200.242188 231.175781 199.835938 231.136719 199.425781 C 231.101562 199.011719 231.066406 198.59375 231.03125 198.164062 C 230.992188 197.738281 230.953125 197.304688 230.910156 196.863281 C 230.871094 196.421875 230.828125 195.976562 230.761719 195.523438 C 230.632812 194.617188 230.5 193.6875 230.367188 192.742188 C 230.199219 191.796875 230 190.835938 229.8125 189.855469 C 229.390625 187.902344 228.886719 185.898438 228.253906 183.890625 C 228.113281 183.386719 227.933594 182.886719 227.765625 182.386719 C 227.589844 181.890625 227.414062 181.386719 227.238281 180.886719 C 226.871094 179.886719 226.457031 178.898438 226.0625 177.90625 C 225.617188 176.933594 225.191406 175.953125 224.71875 174.996094 C 224.480469 174.523438 224.238281 174.050781 223.996094 173.574219 C 223.761719 173.097656 223.5 172.640625 223.242188 172.183594 C 222.980469 171.722656 222.722656 171.269531 222.464844 170.8125 C 222.1875 170.371094 221.914062 169.929688 221.636719 169.492188 C 221.105469 168.609375 220.507812 167.78125 219.945312 166.953125 C 218.765625 165.332031 217.574219 163.800781 216.34375 162.4375 C 215.746094 161.746094 215.117188 161.109375 214.527344 160.484375 C 214.21875 160.183594 213.914062 159.890625 213.617188 159.597656 C 213.320312 159.304688 213.027344 159.027344 212.726562 158.761719 C 211.554688 157.675781 210.410156 156.761719 209.378906 155.980469 C 208.347656 155.199219 207.394531 154.589844 206.613281 154.097656 C 205.828125 153.605469 205.179688 153.273438 204.742188 153.042969 C 204.300781 152.816406 204.058594 152.71875 204.058594 152.71875 C 204.058594 152.71875 204.269531 152.878906 204.652344 153.1875 C 205.035156 153.492188 205.578125 153.964844 206.261719 154.574219 C 206.9375 155.183594 207.742188 155.945312 208.625 156.847656 C 209.507812 157.753906 210.492188 158.78125 211.492188 159.964844 C 212.011719 160.539062 212.511719 161.171875 213.042969 161.8125 C 213.550781 162.476562 214.101562 163.132812 214.613281 163.855469 C 215.683594 165.257812 216.714844 166.8125 217.753906 168.425781 C 218.242188 169.253906 218.78125 170.066406 219.257812 170.9375 C 219.503906 171.363281 219.75 171.796875 219.996094 172.230469 C 220.230469 172.671875 220.464844 173.113281 220.699219 173.558594 C 221.195312 174.441406 221.597656 175.375 222.0625 176.28125 C 222.503906 177.199219 222.902344 178.144531 223.324219 179.078125 C 223.703125 180.03125 224.113281 180.96875 224.46875 181.921875 C 224.644531 182.40625 224.820312 182.882812 225 183.359375 C 225.175781 183.835938 225.359375 184.308594 225.503906 184.789062 C 225.664062 185.273438 225.820312 185.75 225.976562 186.226562 C 226.136719 186.699219 226.296875 187.171875 226.429688 187.648438 C 226.570312 188.125 226.707031 188.597656 226.84375 189.070312 C 226.972656 189.542969 227.132812 190.003906 227.242188 190.472656 C 227.484375 191.410156 227.722656 192.328125 227.949219 193.226562 C 228.15625 194.140625 228.355469 195.03125 228.546875 195.894531 C 228.652344 196.324219 228.734375 196.757812 228.8125 197.183594 C 228.894531 197.605469 228.972656 198.023438 229.050781 198.4375 C 229.128906 198.847656 229.210938 199.25 229.289062 199.652344 C 229.367188 200.046875 229.414062 200.441406 229.480469 200.824219 C 229.609375 201.597656 229.726562 202.332031 229.84375 203.035156 C 229.972656 203.734375 230.03125 204.40625 230.125 205.035156 C 230.292969 206.296875 230.472656 207.398438 230.554688 208.308594 C 230.648438 209.222656 230.75 209.9375 230.804688 210.425781 C 230.871094 210.921875 230.90625 211.179688 230.90625 211.179688 C 230.90625 211.179688 230.929688 210.921875 230.980469 210.425781 C 231.015625 209.933594 231.089844 209.214844 231.148438 208.292969 C 231.171875 207.832031 231.230469 207.320312 231.234375 206.765625 C 231.253906 206.210938 231.261719 205.609375 231.273438 204.964844 C 231.28125 204.644531 231.28125 204.3125 231.289062 203.96875 C 231.292969 203.628906 231.296875 203.273438 231.28125 202.914062 C 231.253906 202.191406 231.230469 201.429688 231.199219 200.636719 " fill-opacity="1" fill-rule="nonzero"/><path fill="#231f20" d="M 162.34375 138.351562 C 141.476562 131.441406 121.800781 140.101562 121.800781 140.101562 L 132.234375 141.980469 C 132.234375 141.980469 140.582031 134.523438 175.457031 148.246094 C 210.335938 161.964844 205.867188 209.6875 205.867188 209.6875 L 209.441406 179.859375 C 198.414062 147.945312 183.210938 145.261719 162.34375 138.351562 " fill-opacity="1" fill-rule="nonzero"/><path fill="#231f20" d="M 146.542969 191.644531 C 146.542969 191.644531 112.855469 185.230469 129.847656 158.535156 C 129.847656 158.535156 130.148438 163.902344 130.59375 163.902344 C 131.042969 163.902344 137.300781 151.671875 137.300781 151.671875 L 121.800781 161.667969 C 121.800781 161.667969 114.792969 180.160156 130.148438 188.0625 C 130.148438 188.0625 108.832031 185.527344 118.671875 161.21875 C 118.671875 161.21875 107.34375 163.007812 108.535156 175.386719 C 109.726562 187.765625 119.566406 200.890625 130.59375 209.6875 C 141.625 218.488281 131.488281 238.324219 131.488281 238.324219 L 110.917969 259.128906 L 118.148438 244.515625 C 118.148438 244.515625 124.035156 239.664062 121.800781 228.628906 C 121.800781 228.628906 118.519531 245.035156 101.082031 247.421875 C 83.644531 249.804688 74.105469 266.359375 74.105469 266.359375 C 74.105469 266.359375 68.066406 273.667969 71.496094 280.378906 C 71.496094 280.378906 61.882812 272.402344 65.457031 259.574219 C 69.035156 246.75 96.683594 229.523438 96.683594 229.523438 C 96.683594 229.523438 79.765625 237.503906 68.8125 227.808594 C 68.8125 227.808594 86.699219 233.699219 95.789062 226.09375 C 104.882812 218.488281 99.890625 205.511719 99.890625 205.511719 C 99.890625 205.511719 88.859375 181.277344 88.785156 181.054688 C 88.710938 180.832031 88.785156 167.78125 88.785156 167.78125 C 88.785156 167.78125 81.183594 176.652344 80.660156 182.84375 C 80.660156 182.84375 80.8125 161.21875 99.21875 150.40625 L 110.992188 142.578125 L 135.363281 147.347656 L 117.773438 140.488281 C 117.773438 140.488281 109.429688 131.390625 91.246094 149.4375 C 73.058594 167.484375 71.867188 196.863281 91.246094 202.082031 C 91.246094 202.082031 82.300781 193.285156 84.539062 183.738281 C 84.539062 183.738281 100.1875 203.722656 94.671875 219.53125 C 89.15625 235.339844 63.667969 224.15625 61.285156 209.6875 C 61.285156 209.6875 53.386719 233.847656 82.898438 235.339844 C 82.898438 235.339844 46.378906 251.546875 68.441406 284.753906 C 90.5 317.960938 106.597656 274.214844 92.683594 266.660156 C 92.683594 266.660156 98.847656 283.164062 89.503906 287.339844 C 80.164062 291.515625 74.601562 277.992188 74.601562 277.992188 C 74.601562 277.992188 71.421875 262.683594 93.28125 255.722656 C 115.144531 248.761719 111.964844 245.980469 111.964844 245.980469 L 113.230469 245.78125 C 113.230469 245.78125 97.503906 267.40625 108.234375 280.078125 C 108.234375 280.078125 104.0625 265.019531 127.761719 246.972656 C 151.460938 228.929688 138.492188 207.601562 125.230469 199.695312 C 111.964844 191.792969 112.707031 175.835938 112.707031 175.835938 C 112.707031 175.835938 120.308594 199.847656 146.542969 191.644531 " fill-opacity="1" fill-rule="nonzero"/><path fill="#231f20" d="M 82.808594 207.0625 C 82.964844 207.691406 83.109375 208.328125 83.246094 208.960938 C 83.382812 209.585938 83.527344 210.203125 83.695312 210.789062 C 84.042969 211.960938 84.460938 213.027344 84.855469 213.929688 C 85.050781 214.382812 85.242188 214.792969 85.421875 215.152344 C 85.605469 215.515625 85.765625 215.824219 85.910156 216.082031 C 86.195312 216.589844 86.390625 216.875 86.390625 216.875 L 86.558594 216.820312 C 86.558594 216.820312 86.566406 216.480469 86.527344 215.898438 C 86.507812 215.605469 86.472656 215.253906 86.425781 214.851562 C 86.378906 214.453125 86.316406 214.003906 86.230469 213.519531 C 86.0625 212.550781 85.828125 211.425781 85.480469 210.257812 C 85.300781 209.675781 85.082031 209.078125 84.851562 208.476562 C 84.625 207.878906 84.394531 207.265625 84.179688 206.652344 C 83.746094 205.421875 83.324219 204.183594 82.902344 203.039062 C 82.492188 201.882812 82.089844 200.8125 81.75 199.894531 C 81.074219 198.054688 80.597656 196.835938 80.597656 196.835938 L 80.425781 196.890625 C 80.425781 196.890625 80.699219 198.167969 81.136719 200.078125 C 81.355469 201.03125 81.609375 202.148438 81.894531 203.335938 C 82.171875 204.527344 82.496094 205.792969 82.808594 207.0625 " fill-opacity="1" fill-rule="nonzero"/><path fill="#231f20" d="M 123.035156 214.550781 L 122.941406 215.441406 L 122.902344 215.882812 L 122.824219 216.316406 C 122.777344 216.601562 122.730469 216.886719 122.695312 217.171875 C 122.453125 218.289062 122.148438 219.367188 121.679688 220.339844 C 121.570312 220.585938 121.457031 220.832031 121.355469 221.074219 C 121.226562 221.308594 121.101562 221.539062 120.976562 221.765625 C 120.855469 222 120.738281 222.226562 120.621094 222.453125 C 120.484375 222.671875 120.347656 222.886719 120.214844 223.097656 C 120.082031 223.308594 119.960938 223.527344 119.832031 223.734375 C 119.707031 223.949219 119.546875 224.132812 119.414062 224.332031 C 119.277344 224.527344 119.140625 224.722656 119.007812 224.910156 C 118.878906 225.101562 118.753906 225.296875 118.605469 225.464844 C 118.03125 226.160156 117.546875 226.84375 117.03125 227.386719 C 116.78125 227.667969 116.554688 227.9375 116.34375 228.191406 C 116.140625 228.449219 115.914062 228.648438 115.734375 228.859375 C 114.984375 229.660156 114.578125 230.171875 114.578125 230.171875 L 114.714844 230.367188 C 114.714844 230.367188 115.3125 230.128906 116.320312 229.617188 C 116.839844 229.378906 117.410156 229 118.074219 228.558594 C 118.75 228.140625 119.425781 227.546875 120.175781 226.902344 C 120.550781 226.578125 120.886719 226.179688 121.253906 225.789062 C 121.4375 225.589844 121.628906 225.394531 121.796875 225.171875 C 121.964844 224.945312 122.136719 224.722656 122.300781 224.484375 C 122.46875 224.25 122.636719 224.007812 122.808594 223.769531 C 122.953125 223.503906 123.09375 223.238281 123.242188 222.96875 C 123.386719 222.699219 123.527344 222.425781 123.660156 222.144531 C 123.777344 221.851562 123.882812 221.554688 123.992188 221.253906 C 124.445312 220.058594 124.664062 218.742188 124.792969 217.425781 C 124.800781 217.089844 124.800781 216.757812 124.800781 216.425781 L 124.789062 215.925781 L 124.726562 215.425781 C 124.679688 215.097656 124.632812 214.769531 124.585938 214.441406 L 124.347656 213.476562 C 124.308594 213.316406 124.277344 213.15625 124.230469 213 L 124.078125 212.53125 C 123.976562 212.222656 123.894531 211.910156 123.789062 211.605469 C 123.558594 211.003906 123.390625 210.394531 123.152344 209.808594 C 122.730469 208.625 122.296875 207.46875 121.894531 206.316406 C 121.472656 205.179688 121.011719 204.078125 120.410156 203.136719 C 119.816406 202.191406 119.132812 201.390625 118.480469 200.675781 C 117.824219 199.964844 117.167969 199.367188 116.570312 198.859375 C 115.96875 198.355469 115.414062 197.953125 114.9375 197.644531 C 113.992188 197.023438 113.378906 196.769531 113.378906 196.769531 L 113.226562 196.957031 C 113.226562 196.957031 113.589844 197.492188 114.242188 198.382812 C 114.566406 198.824219 114.960938 199.359375 115.414062 199.964844 C 115.863281 200.5625 116.371094 201.238281 116.925781 201.980469 C 117.066406 202.160156 117.207031 202.347656 117.34375 202.539062 C 117.484375 202.730469 117.628906 202.921875 117.777344 203.121094 C 118.058594 203.527344 118.375 203.925781 118.691406 204.339844 C 119.011719 204.753906 119.363281 205.164062 119.710938 205.59375 C 120.078125 206.011719 120.417969 206.460938 120.78125 206.921875 C 121.46875 207.851562 122.105469 208.890625 122.472656 210.050781 C 122.691406 210.617188 122.804688 211.222656 122.925781 211.820312 C 122.972656 212.121094 122.996094 212.429688 123.023438 212.734375 L 123.054688 213.1875 C 123.0625 213.339844 123.054688 213.492188 123.054688 213.648438 L 123.035156 214.550781 " fill-opacity="1" fill-rule="nonzero"/><g fill="#000000" fill-opacity="1"><g transform="translate(160.605493, 222.558156)"><g><path d="M 3.75 -12.671875 C 3.75 -11.984375 4.015625 -11.347656 4.546875 -10.765625 C 5.078125 -10.191406 5.722656 -9.6875 6.484375 -9.25 C 7.253906 -8.8125 8.015625 -8.363281 8.765625 -7.90625 C 9.523438 -7.445312 10.171875 -6.882812 10.703125 -6.21875 C 11.242188 -5.5625 11.515625 -4.832031 11.515625 -4.03125 C 11.515625 -2.757812 11.046875 -1.722656 10.109375 -0.921875 C 9.171875 -0.117188 7.90625 0.28125 6.3125 0.28125 C 4.726562 0.28125 3.15625 -0.0195312 1.59375 -0.625 L 1.59375 -1.71875 C 3.164062 -0.925781 4.503906 -0.53125 5.609375 -0.53125 C 6.710938 -0.53125 7.570312 -0.800781 8.1875 -1.34375 C 8.8125 -1.882812 9.125 -2.632812 9.125 -3.59375 C 9.125 -4.238281 8.867188 -4.828125 8.359375 -5.359375 C 7.847656 -5.890625 7.226562 -6.351562 6.5 -6.75 C 5.78125 -7.144531 5.054688 -7.550781 4.328125 -7.96875 C 3.597656 -8.382812 2.976562 -8.910156 2.46875 -9.546875 C 1.96875 -10.191406 1.71875 -10.96875 1.71875 -11.875 C 1.71875 -12.789062 2.117188 -13.640625 2.921875 -14.421875 C 3.734375 -15.210938 4.941406 -15.609375 6.546875 -15.609375 C 7.597656 -15.609375 8.925781 -15.367188 10.53125 -14.890625 L 10.296875 -13.3125 C 8.210938 -14.207031 6.429688 -14.65625 4.953125 -14.65625 C 4.148438 -14.269531 3.75 -13.609375 3.75 -12.671875 Z M 3.75 -12.671875 "/></g></g></g><g fill="#000000" fill-opacity="1"><g transform="translate(173.482988, 222.558156)"><g><path d="M 6.59375 -2.453125 L 6.59375 -4.84375 C 5.488281 -4.757812 4.578125 -4.507812 3.859375 -4.09375 C 3.148438 -3.675781 2.796875 -3.226562 2.796875 -2.75 C 2.796875 -2.269531 2.921875 -1.859375 3.171875 -1.515625 C 3.421875 -1.171875 3.738281 -0.925781 4.125 -0.78125 C 4.632812 -0.875 5.171875 -1.128906 5.734375 -1.546875 C 6.304688 -1.960938 6.59375 -2.265625 6.59375 -2.453125 Z M 8.5 -3.078125 C 8.5 -1.984375 8.898438 -1.148438 9.703125 -0.578125 L 8.5 0.296875 L 6.625 -1.390625 C 5.40625 -0.273438 4.273438 0.28125 3.234375 0.28125 C 2.554688 0.28125 1.972656 0.0664062 1.484375 -0.359375 C 1.003906 -0.796875 0.765625 -1.34375 0.765625 -2 C 0.765625 -2.65625 0.957031 -3.195312 1.34375 -3.625 C 1.738281 -4.0625 2.265625 -4.394531 2.921875 -4.625 C 4.023438 -5.039062 5.25 -5.304688 6.59375 -5.421875 L 6.59375 -7.59375 C 6.59375 -8.875 5.851562 -9.515625 4.375 -9.515625 C 3.53125 -9.515625 2.523438 -9.332031 1.359375 -8.96875 L 1.15625 -9.546875 C 1.46875 -9.785156 2.003906 -10.046875 2.765625 -10.328125 C 3.523438 -10.609375 4.253906 -10.75 4.953125 -10.75 C 5.648438 -10.75 6.234375 -10.65625 6.703125 -10.46875 C 7.171875 -10.28125 7.515625 -10.070312 7.734375 -9.84375 C 7.960938 -9.613281 8.140625 -9.296875 8.265625 -8.890625 C 8.390625 -8.492188 8.457031 -8.175781 8.46875 -7.9375 C 8.488281 -7.707031 8.5 -7.398438 8.5 -7.015625 Z M 8.5 -3.078125 "/></g></g></g><g fill="#000000" fill-opacity="1"><g transform="translate(183.766455, 222.558156)"><g><path d="M 3.6875 -15.8125 L 3.6875 0 L 1.734375 0 L 1.734375 -15.8125 Z M 3.6875 -15.8125 "/></g></g></g><g fill="#000000" fill-opacity="1"><g transform="translate(189.186128, 222.558156)"><g><path d="M 5.125 0.296875 L 4.765625 0.296875 L 0.234375 -10.46875 L 2.265625 -10.46875 L 5.46875 -2.359375 L 8.5 -10.46875 L 9.375 -10.46875 Z M 5.125 0.296875 "/></g></g></g><g fill="#000000" fill-opacity="1"><g transform="translate(198.797931, 222.558156)"><g><path d="M 6.59375 -2.453125 L 6.59375 -4.84375 C 5.488281 -4.757812 4.578125 -4.507812 3.859375 -4.09375 C 3.148438 -3.675781 2.796875 -3.226562 2.796875 -2.75 C 2.796875 -2.269531 2.921875 -1.859375 3.171875 -1.515625 C 3.421875 -1.171875 3.738281 -0.925781 4.125 -0.78125 C 4.632812 -0.875 5.171875 -1.128906 5.734375 -1.546875 C 6.304688 -1.960938 6.59375 -2.265625 6.59375 -2.453125 Z M 8.5 -3.078125 C 8.5 -1.984375 8.898438 -1.148438 9.703125 -0.578125 L 8.5 0.296875 L 6.625 -1.390625 C 5.40625 -0.273438 4.273438 0.28125 3.234375 0.28125 C 2.554688 0.28125 1.972656 0.0664062 1.484375 -0.359375 C 1.003906 -0.796875 0.765625 -1.34375 0.765625 -2 C 0.765625 -2.65625 0.957031 -3.195312 1.34375 -3.625 C 1.738281 -4.0625 2.265625 -4.394531 2.921875 -4.625 C 4.023438 -5.039062 5.25 -5.304688 6.59375 -5.421875 L 6.59375 -7.59375 C 6.59375 -8.875 5.851562 -9.515625 4.375 -9.515625 C 3.53125 -9.515625 2.523438 -9.332031 1.359375 -8.96875 L 1.15625 -9.546875 C 1.46875 -9.785156 2.003906 -10.046875 2.765625 -10.328125 C 3.523438 -10.609375 4.253906 -10.75 4.953125 -10.75 C 5.648438 -10.75 6.234375 -10.65625 6.703125 -10.46875 C 7.171875 -10.28125 7.515625 -10.070312 7.734375 -9.84375 C 7.960938 -9.613281 8.140625 -9.296875 8.265625 -8.890625 C 8.390625 -8.492188 8.457031 -8.175781 8.46875 -7.9375 C 8.488281 -7.707031 8.5 -7.398438 8.5 -7.015625 Z M 8.5 -3.078125 "/></g></g></g><g fill="#000000" fill-opacity="1"><g transform="translate(209.081398, 222.558156)"><g><path d="M 9.8125 -3.109375 C 9.8125 -2.035156 10.207031 -1.1875 11 -0.5625 L 9.8125 0.296875 L 7.921875 -1.390625 C 7.304688 -0.804688 6.75 -0.378906 6.25 -0.109375 C 5.757812 0.148438 5.25 0.28125 4.71875 0.28125 C 4.195312 0.28125 3.734375 0.203125 3.328125 0.046875 C 2.929688 -0.109375 2.507812 -0.367188 2.0625 -0.734375 C 1.625 -1.097656 1.269531 -1.664062 1 -2.4375 C 0.738281 -3.21875 0.609375 -4.222656 0.609375 -5.453125 C 0.609375 -6.691406 0.972656 -7.878906 1.703125 -9.015625 C 2.429688 -10.148438 3.4375 -10.71875 4.71875 -10.71875 C 5.675781 -10.71875 6.71875 -10.363281 7.84375 -9.65625 L 7.84375 -15.8125 L 9.8125 -15.8125 Z M 7.84375 -2.34375 L 7.84375 -8.796875 C 7.03125 -9.335938 6.285156 -9.609375 5.609375 -9.609375 C 4.710938 -9.609375 3.992188 -9.1875 3.453125 -8.34375 C 2.910156 -7.5 2.640625 -6.441406 2.640625 -5.171875 C 2.640625 -3.910156 2.835938 -2.898438 3.234375 -2.140625 C 3.628906 -1.378906 4.117188 -0.921875 4.703125 -0.765625 C 5.242188 -0.804688 5.769531 -0.9375 6.28125 -1.15625 C 6.800781 -1.375 7.191406 -1.59375 7.453125 -1.8125 C 7.710938 -2.039062 7.84375 -2.21875 7.84375 -2.34375 Z M 7.84375 -2.34375 "/></g></g></g><g fill="#000000" fill-opacity="1"><g transform="translate(220.661879, 222.558156)"><g><path d="M 6.203125 -10.75 C 7.566406 -10.75 8.691406 -10.285156 9.578125 -9.359375 C 10.460938 -8.429688 10.90625 -7.15625 10.90625 -5.53125 C 10.90625 -4.5 10.726562 -3.585938 10.375 -2.796875 C 10.019531 -2.015625 9.554688 -1.40625 8.984375 -0.96875 C 7.890625 -0.132812 6.664062 0.28125 5.3125 0.28125 C 3.957031 0.28125 2.835938 -0.179688 1.953125 -1.109375 C 1.066406 -2.035156 0.625 -3.3125 0.625 -4.9375 C 0.625 -5.96875 0.796875 -6.875 1.140625 -7.65625 C 1.492188 -8.445312 1.957031 -9.0625 2.53125 -9.5 C 3.625 -10.332031 4.847656 -10.75 6.203125 -10.75 Z M 5.75 -0.515625 C 6.425781 -0.515625 7.003906 -0.773438 7.484375 -1.296875 C 8.347656 -2.222656 8.78125 -3.453125 8.78125 -4.984375 C 8.78125 -6.523438 8.515625 -7.722656 7.984375 -8.578125 C 7.460938 -9.429688 6.609375 -9.859375 5.421875 -9.859375 C 4.535156 -9.523438 3.863281 -8.925781 3.40625 -8.0625 C 2.957031 -7.207031 2.734375 -6.175781 2.734375 -4.96875 C 2.734375 -3.757812 2.976562 -2.710938 3.46875 -1.828125 C 3.96875 -0.953125 4.726562 -0.515625 5.75 -0.515625 Z M 5.75 -0.515625 "/></g></g></g><g fill="#000000" fill-opacity="1"><g transform="translate(232.24236, 222.558156)"><g><path d="M 3.421875 0 L 1.484375 0 L 1.484375 -10.46875 L 2.828125 -10.46875 L 3.359375 -8.515625 C 3.671875 -9.054688 4.160156 -9.566406 4.828125 -10.046875 C 5.492188 -10.523438 6.1875 -10.820312 6.90625 -10.9375 L 7.125 -9.328125 C 6.5625 -9.328125 5.921875 -9.148438 5.203125 -8.796875 C 4.484375 -8.441406 3.890625 -8.050781 3.421875 -7.625 Z M 3.421875 0 "/></g></g></g><g fill="#000000" fill-opacity="1"><g transform="translate(239.607553, 222.558156)"><g/></g></g><g fill="#000000" fill-opacity="1"><g transform="translate(245.397801, 222.558156)"><g><path d="M 4.21875 -15.328125 L 4.21875 0 L 2.078125 0 L 2.078125 -15.328125 Z M 4.21875 -15.328125 "/></g></g></g><g fill="#000000" fill-opacity="1"><g transform="translate(251.697583, 222.558156)"><g><path d="M 3.75 -8.984375 C 4.394531 -9.597656 4.960938 -10.046875 5.453125 -10.328125 C 5.941406 -10.609375 6.515625 -10.75 7.171875 -10.75 C 7.835938 -10.75 8.453125 -10.484375 9.015625 -9.953125 C 9.578125 -9.429688 9.859375 -8.53125 9.859375 -7.25 L 9.859375 0 L 7.890625 0 L 7.890625 -7.015625 C 7.890625 -7.773438 7.753906 -8.34375 7.484375 -8.71875 C 7.210938 -9.09375 6.75 -9.28125 6.09375 -9.28125 C 5.445312 -9.28125 4.691406 -8.847656 3.828125 -7.984375 L 3.828125 0 L 1.859375 0 L 1.859375 -7.265625 C 1.859375 -8.316406 1.460938 -9.160156 0.671875 -9.796875 L 1.859375 -10.671875 Z M 3.75 -8.984375 "/></g></g></g><g fill="#000000" fill-opacity="1"><g transform="translate(263.278064, 222.558156)"><g><path d="M 6.203125 -10.75 C 7.566406 -10.75 8.691406 -10.285156 9.578125 -9.359375 C 10.460938 -8.429688 10.90625 -7.15625 10.90625 -5.53125 C 10.90625 -4.5 10.726562 -3.585938 10.375 -2.796875 C 10.019531 -2.015625 9.554688 -1.40625 8.984375 -0.96875 C 7.890625 -0.132812 6.664062 0.28125 5.3125 0.28125 C 3.957031 0.28125 2.835938 -0.179688 1.953125 -1.109375 C 1.066406 -2.035156 0.625 -3.3125 0.625 -4.9375 C 0.625 -5.96875 0.796875 -6.875 1.140625 -7.65625 C 1.492188 -8.445312 1.957031 -9.0625 2.53125 -9.5 C 3.625 -10.332031 4.847656 -10.75 6.203125 -10.75 Z M 5.75 -0.515625 C 6.425781 -0.515625 7.003906 -0.773438 7.484375 -1.296875 C 8.347656 -2.222656 8.78125 -3.453125 8.78125 -4.984375 C 8.78125 -6.523438 8.515625 -7.722656 7.984375 -8.578125 C 7.460938 -9.429688 6.609375 -9.859375 5.421875 -9.859375 C 4.535156 -9.523438 3.863281 -8.925781 3.40625 -8.0625 C 2.957031 -7.207031 2.734375 -6.175781 2.734375 -4.96875 C 2.734375 -3.757812 2.976562 -2.710938 3.46875 -1.828125 C 3.96875 -0.953125 4.726562 -0.515625 5.75 -0.515625 Z M 5.75 -0.515625 "/></g></g></g><g fill="#000000" fill-opacity="1"><g transform="translate(274.858545, 222.558156)"><g><path d="M 3.6875 -15.8125 L 3.6875 0 L 1.734375 0 L 1.734375 -15.8125 Z M 3.6875 -15.8125 "/></g></g></g><g fill="#000000" fill-opacity="1"><g transform="translate(280.278217, 222.558156)"><g><path d="M 6.59375 -2.453125 L 6.59375 -4.84375 C 5.488281 -4.757812 4.578125 -4.507812 3.859375 -4.09375 C 3.148438 -3.675781 2.796875 -3.226562 2.796875 -2.75 C 2.796875 -2.269531 2.921875 -1.859375 3.171875 -1.515625 C 3.421875 -1.171875 3.738281 -0.925781 4.125 -0.78125 C 4.632812 -0.875 5.171875 -1.128906 5.734375 -1.546875 C 6.304688 -1.960938 6.59375 -2.265625 6.59375 -2.453125 Z M 8.5 -3.078125 C 8.5 -1.984375 8.898438 -1.148438 9.703125 -0.578125 L 8.5 0.296875 L 6.625 -1.390625 C 5.40625 -0.273438 4.273438 0.28125 3.234375 0.28125 C 2.554688 0.28125 1.972656 0.0664062 1.484375 -0.359375 C 1.003906 -0.796875 0.765625 -1.34375 0.765625 -2 C 0.765625 -2.65625 0.957031 -3.195312 1.34375 -3.625 C 1.738281 -4.0625 2.265625 -4.394531 2.921875 -4.625 C 4.023438 -5.039062 5.25 -5.304688 6.59375 -5.421875 L 6.59375 -7.59375 C 6.59375 -8.875 5.851562 -9.515625 4.375 -9.515625 C 3.53125 -9.515625 2.523438 -9.332031 1.359375 -8.96875 L 1.15625 -9.546875 C 1.46875 -9.785156 2.003906 -10.046875 2.765625 -10.328125 C 3.523438 -10.609375 4.253906 -10.75 4.953125 -10.75 C 5.648438 -10.75 6.234375 -10.65625 6.703125 -10.46875 C 7.171875 -10.28125 7.515625 -10.070312 7.734375 -9.84375 C 7.960938 -9.613281 8.140625 -9.296875 8.265625 -8.890625 C 8.390625 -8.492188 8.457031 -8.175781 8.46875 -7.9375 C 8.488281 -7.707031 8.5 -7.398438 8.5 -7.015625 Z M 8.5 -3.078125 "/></g></g></g><g fill="#000000" fill-opacity="1"><g transform="translate(142.973375, 240.114169)"><g><path d="M 8.046875 0 L 8.046875 -0.53125 L 8.078125 -0.53125 C 8.210938 -0.53125 8.335938 -0.539062 8.453125 -0.5625 C 8.566406 -0.582031 8.660156 -0.617188 8.734375 -0.671875 C 8.804688 -0.722656 8.863281 -0.800781 8.90625 -0.90625 C 8.957031 -1.019531 8.988281 -1.160156 9 -1.328125 L 9 -8.109375 L 6.09375 0 L 5.40625 0 L 2.453125 -8.078125 L 2.453125 -1.4375 C 2.453125 -1.238281 2.472656 -1.078125 2.515625 -0.953125 C 2.554688 -0.835938 2.617188 -0.75 2.703125 -0.6875 C 2.785156 -0.625 2.882812 -0.582031 3 -0.5625 C 3.113281 -0.539062 3.238281 -0.53125 3.375 -0.53125 L 3.40625 -0.53125 L 3.40625 0 L 0.484375 0 L 0.484375 -0.53125 L 0.640625 -0.53125 C 0.785156 -0.53125 0.921875 -0.539062 1.046875 -0.5625 C 1.171875 -0.582031 1.28125 -0.617188 1.375 -0.671875 C 1.46875 -0.734375 1.539062 -0.820312 1.59375 -0.9375 C 1.65625 -1.050781 1.6875 -1.195312 1.6875 -1.375 L 1.6875 -7.65625 C 1.6875 -7.84375 1.65625 -7.992188 1.59375 -8.109375 C 1.539062 -8.222656 1.46875 -8.3125 1.375 -8.375 C 1.28125 -8.4375 1.171875 -8.476562 1.046875 -8.5 C 0.921875 -8.519531 0.785156 -8.53125 0.640625 -8.53125 L 0.484375 -8.53125 L 0.484375 -9.0625 L 3.375 -9.0625 L 6 -1.796875 L 8.609375 -9.0625 L 11.421875 -9.0625 L 11.421875 -8.53125 L 11.25 -8.53125 C 11.113281 -8.53125 10.976562 -8.519531 10.84375 -8.5 C 10.71875 -8.476562 10.609375 -8.429688 10.515625 -8.359375 C 10.421875 -8.296875 10.347656 -8.203125 10.296875 -8.078125 C 10.242188 -7.960938 10.21875 -7.804688 10.21875 -7.609375 L 10.21875 -1.4375 C 10.21875 -1.238281 10.242188 -1.078125 10.296875 -0.953125 C 10.347656 -0.835938 10.421875 -0.75 10.515625 -0.6875 C 10.609375 -0.625 10.71875 -0.582031 10.84375 -0.5625 C 10.976562 -0.539062 11.113281 -0.53125 11.25 -0.53125 L 11.421875 -0.53125 L 11.421875 0 Z M 8.046875 0 "/></g></g></g><g fill="#000000" fill-opacity="1"><g transform="translate(154.866772, 240.114169)"><g><path d="M 8.6875 -4.546875 C 8.6875 -3.847656 8.597656 -3.207031 8.421875 -2.625 C 8.253906 -2.050781 8 -1.5625 7.65625 -1.15625 C 7.320312 -0.75 6.90625 -0.429688 6.40625 -0.203125 C 5.914062 0.015625 5.347656 0.125 4.703125 0.125 C 4.035156 0.125 3.453125 0.015625 2.953125 -0.203125 C 2.453125 -0.429688 2.035156 -0.75 1.703125 -1.15625 C 1.367188 -1.5625 1.117188 -2.050781 0.953125 -2.625 C 0.796875 -3.207031 0.71875 -3.847656 0.71875 -4.546875 C 0.71875 -5.253906 0.796875 -5.894531 0.953125 -6.46875 C 1.117188 -7.039062 1.367188 -7.523438 1.703125 -7.921875 C 2.035156 -8.328125 2.453125 -8.640625 2.953125 -8.859375 C 3.453125 -9.085938 4.039062 -9.203125 4.71875 -9.203125 C 5.363281 -9.203125 5.929688 -9.085938 6.421875 -8.859375 C 6.910156 -8.640625 7.320312 -8.328125 7.65625 -7.921875 C 8 -7.515625 8.253906 -7.023438 8.421875 -6.453125 C 8.597656 -5.878906 8.6875 -5.242188 8.6875 -4.546875 Z M 2.125 -4.546875 C 2.125 -3.910156 2.164062 -3.347656 2.25 -2.859375 C 2.34375 -2.367188 2.492188 -1.953125 2.703125 -1.609375 C 2.910156 -1.265625 3.175781 -1.003906 3.5 -0.828125 C 3.832031 -0.648438 4.234375 -0.5625 4.703125 -0.5625 C 5.179688 -0.5625 5.582031 -0.648438 5.90625 -0.828125 C 6.238281 -1.003906 6.503906 -1.265625 6.703125 -1.609375 C 6.910156 -1.953125 7.054688 -2.367188 7.140625 -2.859375 C 7.234375 -3.347656 7.28125 -3.910156 7.28125 -4.546875 C 7.28125 -5.171875 7.234375 -5.726562 7.140625 -6.21875 C 7.054688 -6.71875 6.910156 -7.132812 6.703125 -7.46875 C 6.503906 -7.8125 6.238281 -8.070312 5.90625 -8.25 C 5.582031 -8.425781 5.1875 -8.515625 4.71875 -8.515625 C 4.25 -8.515625 3.847656 -8.425781 3.515625 -8.25 C 3.179688 -8.070312 2.910156 -7.8125 2.703125 -7.46875 C 2.492188 -7.132812 2.34375 -6.71875 2.25 -6.21875 C 2.164062 -5.726562 2.125 -5.171875 2.125 -4.546875 Z M 2.125 -4.546875 "/></g></g></g><g fill="#000000" fill-opacity="1"><g transform="translate(164.277477, 240.114169)"><g><path d="M 7.21875 0 L 2.453125 -7.3125 L 2.453125 -1.4375 C 2.453125 -1.238281 2.476562 -1.078125 2.53125 -0.953125 C 2.59375 -0.835938 2.671875 -0.75 2.765625 -0.6875 C 2.859375 -0.625 2.96875 -0.582031 3.09375 -0.5625 C 3.226562 -0.539062 3.363281 -0.53125 3.5 -0.53125 L 3.671875 -0.53125 L 3.671875 0 L 0.484375 0 L 0.484375 -0.53125 L 0.640625 -0.53125 C 0.785156 -0.53125 0.921875 -0.539062 1.046875 -0.5625 C 1.171875 -0.582031 1.28125 -0.625 1.375 -0.6875 C 1.476562 -0.75 1.554688 -0.835938 1.609375 -0.953125 C 1.660156 -1.078125 1.6875 -1.238281 1.6875 -1.4375 L 1.6875 -7.65625 C 1.6875 -7.84375 1.65625 -7.992188 1.59375 -8.109375 C 1.539062 -8.222656 1.46875 -8.3125 1.375 -8.375 C 1.28125 -8.4375 1.171875 -8.476562 1.046875 -8.5 C 0.921875 -8.519531 0.785156 -8.53125 0.640625 -8.53125 L 0.484375 -8.53125 L 0.484375 -9.0625 L 2.8125 -9.0625 L 7.34375 -2.046875 L 7.34375 -7.65625 C 7.34375 -7.84375 7.316406 -7.992188 7.265625 -8.109375 C 7.210938 -8.222656 7.132812 -8.3125 7.03125 -8.375 C 6.9375 -8.4375 6.828125 -8.476562 6.703125 -8.5 C 6.578125 -8.519531 6.445312 -8.53125 6.3125 -8.53125 L 6.140625 -8.53125 L 6.140625 -9.0625 L 9.328125 -9.0625 L 9.328125 -8.53125 L 9.15625 -8.53125 C 9.019531 -8.53125 8.882812 -8.519531 8.75 -8.5 C 8.625 -8.476562 8.515625 -8.429688 8.421875 -8.359375 C 8.328125 -8.296875 8.253906 -8.203125 8.203125 -8.078125 C 8.148438 -7.960938 8.125 -7.804688 8.125 -7.609375 L 8.125 0 Z M 7.21875 0 "/></g></g></g><g fill="#000000" fill-opacity="1"><g transform="translate(173.954406, 240.114169)"><g><path d="M 0.484375 0 L 0.484375 -0.53125 L 0.640625 -0.53125 C 0.785156 -0.53125 0.921875 -0.539062 1.046875 -0.5625 C 1.171875 -0.582031 1.28125 -0.625 1.375 -0.6875 C 1.476562 -0.75 1.554688 -0.835938 1.609375 -0.953125 C 1.660156 -1.078125 1.6875 -1.238281 1.6875 -1.4375 L 1.6875 -7.609375 C 1.6875 -7.804688 1.660156 -7.960938 1.609375 -8.078125 C 1.554688 -8.203125 1.476562 -8.296875 1.375 -8.359375 C 1.28125 -8.429688 1.171875 -8.476562 1.046875 -8.5 C 0.921875 -8.519531 0.785156 -8.53125 0.640625 -8.53125 L 0.484375 -8.53125 L 0.484375 -9.0625 L 4.171875 -9.0625 L 4.171875 -8.53125 L 4.015625 -8.53125 C 3.867188 -8.53125 3.726562 -8.519531 3.59375 -8.5 C 3.46875 -8.476562 3.359375 -8.429688 3.265625 -8.359375 C 3.179688 -8.296875 3.109375 -8.203125 3.046875 -8.078125 C 2.992188 -7.960938 2.96875 -7.804688 2.96875 -7.609375 L 2.96875 -1.4375 C 2.96875 -1.238281 2.992188 -1.078125 3.046875 -0.953125 C 3.109375 -0.835938 3.179688 -0.75 3.265625 -0.6875 C 3.359375 -0.625 3.46875 -0.582031 3.59375 -0.5625 C 3.726562 -0.539062 3.867188 -0.53125 4.015625 -0.53125 L 4.171875 -0.53125 L 4.171875 0 Z M 0.484375 0 "/></g></g></g><g fill="#000000" fill-opacity="1"><g transform="translate(178.610228, 240.114169)"><g><path d="M 4.515625 -1.4375 C 4.515625 -1.238281 4.539062 -1.078125 4.59375 -0.953125 C 4.65625 -0.835938 4.734375 -0.75 4.828125 -0.6875 C 4.921875 -0.625 5.03125 -0.582031 5.15625 -0.5625 C 5.28125 -0.539062 5.414062 -0.53125 5.5625 -0.53125 L 5.84375 -0.53125 L 5.84375 0 L 1.90625 0 L 1.90625 -0.53125 L 2.1875 -0.53125 C 2.332031 -0.53125 2.46875 -0.539062 2.59375 -0.5625 C 2.71875 -0.582031 2.828125 -0.617188 2.921875 -0.671875 C 3.015625 -0.734375 3.085938 -0.820312 3.140625 -0.9375 C 3.203125 -1.050781 3.234375 -1.195312 3.234375 -1.375 L 3.234375 -8.421875 L 2.015625 -8.421875 C 1.828125 -8.421875 1.671875 -8.394531 1.546875 -8.34375 C 1.421875 -8.289062 1.316406 -8.210938 1.234375 -8.109375 C 1.160156 -8.015625 1.101562 -7.90625 1.0625 -7.78125 C 1.019531 -7.65625 0.992188 -7.523438 0.984375 -7.390625 L 0.90625 -6.84375 L 0.25 -6.84375 L 0.3125 -9.0625 L 7.453125 -9.0625 L 7.515625 -6.84375 L 6.859375 -6.84375 L 6.796875 -7.390625 C 6.785156 -7.523438 6.757812 -7.65625 6.71875 -7.78125 C 6.675781 -7.90625 6.613281 -8.015625 6.53125 -8.109375 C 6.457031 -8.210938 6.351562 -8.289062 6.21875 -8.34375 C 6.09375 -8.394531 5.9375 -8.421875 5.75 -8.421875 L 4.515625 -8.421875 Z M 4.515625 -1.4375 "/></g></g></g><g fill="#000000" fill-opacity="1"><g transform="translate(186.380251, 240.114169)"><g><path d="M 7.03125 -1.546875 C 7.25 -1.210938 7.457031 -0.957031 7.65625 -0.78125 C 7.851562 -0.613281 8.085938 -0.53125 8.359375 -0.53125 L 8.40625 -0.53125 L 8.40625 0 L 8.21875 0 C 7.820312 0 7.492188 -0.015625 7.234375 -0.046875 C 6.984375 -0.078125 6.769531 -0.128906 6.59375 -0.203125 C 6.414062 -0.285156 6.265625 -0.398438 6.140625 -0.546875 C 6.015625 -0.703125 5.878906 -0.898438 5.734375 -1.140625 L 4.015625 -4 L 2.96875 -4 L 2.96875 -1.375 C 2.96875 -1.195312 2.992188 -1.050781 3.046875 -0.9375 C 3.109375 -0.820312 3.1875 -0.734375 3.28125 -0.671875 C 3.375 -0.617188 3.484375 -0.582031 3.609375 -0.5625 C 3.734375 -0.539062 3.867188 -0.53125 4.015625 -0.53125 L 4.171875 -0.53125 L 4.171875 0 L 0.484375 0 L 0.484375 -0.53125 L 0.640625 -0.53125 C 0.785156 -0.53125 0.921875 -0.539062 1.046875 -0.5625 C 1.171875 -0.582031 1.28125 -0.617188 1.375 -0.671875 C 1.46875 -0.734375 1.539062 -0.820312 1.59375 -0.9375 C 1.65625 -1.050781 1.6875 -1.195312 1.6875 -1.375 L 1.6875 -7.65625 C 1.6875 -7.84375 1.65625 -7.992188 1.59375 -8.109375 C 1.539062 -8.222656 1.46875 -8.3125 1.375 -8.375 C 1.28125 -8.4375 1.171875 -8.476562 1.046875 -8.5 C 0.921875 -8.519531 0.785156 -8.53125 0.640625 -8.53125 L 0.484375 -8.53125 L 0.484375 -9.0625 L 3.890625 -9.0625 C 4.992188 -9.0625 5.8125 -8.859375 6.34375 -8.453125 C 6.882812 -8.046875 7.15625 -7.429688 7.15625 -6.609375 C 7.15625 -6.273438 7.097656 -5.976562 6.984375 -5.71875 C 6.878906 -5.46875 6.738281 -5.25 6.5625 -5.0625 C 6.382812 -4.875 6.179688 -4.71875 5.953125 -4.59375 C 5.734375 -4.46875 5.515625 -4.367188 5.296875 -4.296875 Z M 2.96875 -4.59375 L 3.859375 -4.59375 C 4.234375 -4.59375 4.539062 -4.632812 4.78125 -4.71875 C 5.03125 -4.800781 5.226562 -4.921875 5.375 -5.078125 C 5.53125 -5.242188 5.640625 -5.453125 5.703125 -5.703125 C 5.765625 -5.953125 5.796875 -6.242188 5.796875 -6.578125 C 5.796875 -6.910156 5.757812 -7.195312 5.6875 -7.4375 C 5.625 -7.675781 5.507812 -7.867188 5.34375 -8.015625 C 5.1875 -8.171875 4.984375 -8.28125 4.734375 -8.34375 C 4.492188 -8.414062 4.191406 -8.453125 3.828125 -8.453125 L 2.96875 -8.453125 Z M 2.96875 -4.59375 "/></g></g></g><g fill="#000000" fill-opacity="1"><g transform="translate(194.695104, 240.114169)"><g><path d="M 0.484375 0 L 0.484375 -0.53125 L 0.640625 -0.53125 C 0.785156 -0.53125 0.921875 -0.539062 1.046875 -0.5625 C 1.171875 -0.582031 1.28125 -0.625 1.375 -0.6875 C 1.476562 -0.75 1.554688 -0.835938 1.609375 -0.953125 C 1.660156 -1.078125 1.6875 -1.238281 1.6875 -1.4375 L 1.6875 -7.609375 C 1.6875 -7.804688 1.660156 -7.960938 1.609375 -8.078125 C 1.554688 -8.203125 1.476562 -8.296875 1.375 -8.359375 C 1.28125 -8.429688 1.171875 -8.476562 1.046875 -8.5 C 0.921875 -8.519531 0.785156 -8.53125 0.640625 -8.53125 L 0.484375 -8.53125 L 0.484375 -9.0625 L 4.171875 -9.0625 L 4.171875 -8.53125 L 4.015625 -8.53125 C 3.867188 -8.53125 3.726562 -8.519531 3.59375 -8.5 C 3.46875 -8.476562 3.359375 -8.429688 3.265625 -8.359375 C 3.179688 -8.296875 3.109375 -8.203125 3.046875 -8.078125 C 2.992188 -7.960938 2.96875 -7.804688 2.96875 -7.609375 L 2.96875 -1.4375 C 2.96875 -1.238281 2.992188 -1.078125 3.046875 -0.953125 C 3.109375 -0.835938 3.179688 -0.75 3.265625 -0.6875 C 3.359375 -0.625 3.46875 -0.582031 3.59375 -0.5625 C 3.726562 -0.539062 3.867188 -0.53125 4.015625 -0.53125 L 4.171875 -0.53125 L 4.171875 0 Z M 0.484375 0 "/></g></g></g><g fill="#000000" fill-opacity="1"><g transform="translate(199.350927, 240.114169)"><g><path d="M 4.796875 -9.1875 C 5.234375 -9.1875 5.609375 -9.148438 5.921875 -9.078125 C 6.242188 -9.003906 6.507812 -8.90625 6.71875 -8.78125 C 6.9375 -8.65625 7.097656 -8.503906 7.203125 -8.328125 C 7.304688 -8.148438 7.359375 -7.960938 7.359375 -7.765625 C 7.359375 -7.628906 7.328125 -7.503906 7.265625 -7.390625 C 7.210938 -7.285156 7.132812 -7.191406 7.03125 -7.109375 C 6.9375 -7.035156 6.820312 -6.976562 6.6875 -6.9375 C 6.5625 -6.894531 6.414062 -6.875 6.25 -6.875 C 6.25 -7.070312 6.222656 -7.265625 6.171875 -7.453125 C 6.128906 -7.648438 6.046875 -7.828125 5.921875 -7.984375 C 5.804688 -8.140625 5.65625 -8.265625 5.46875 -8.359375 C 5.28125 -8.460938 5.046875 -8.515625 4.765625 -8.515625 C 4.285156 -8.515625 3.878906 -8.425781 3.546875 -8.25 C 3.210938 -8.070312 2.941406 -7.8125 2.734375 -7.46875 C 2.523438 -7.132812 2.367188 -6.722656 2.265625 -6.234375 C 2.171875 -5.742188 2.125 -5.179688 2.125 -4.546875 C 2.125 -3.972656 2.171875 -3.453125 2.265625 -2.984375 C 2.367188 -2.515625 2.53125 -2.109375 2.75 -1.765625 C 2.96875 -1.429688 3.238281 -1.171875 3.5625 -0.984375 C 3.894531 -0.804688 4.296875 -0.71875 4.765625 -0.71875 C 5.078125 -0.71875 5.351562 -0.742188 5.59375 -0.796875 C 5.832031 -0.859375 6.039062 -0.9375 6.21875 -1.03125 C 6.40625 -1.132812 6.566406 -1.25 6.703125 -1.375 C 6.835938 -1.507812 6.957031 -1.648438 7.0625 -1.796875 C 7.132812 -1.742188 7.191406 -1.675781 7.234375 -1.59375 C 7.285156 -1.519531 7.3125 -1.421875 7.3125 -1.296875 C 7.3125 -1.128906 7.253906 -0.960938 7.140625 -0.796875 C 7.035156 -0.628906 6.867188 -0.476562 6.640625 -0.34375 C 6.421875 -0.207031 6.140625 -0.09375 5.796875 0 C 5.453125 0.0820312 5.046875 0.125 4.578125 0.125 C 3.941406 0.125 3.382812 0.015625 2.90625 -0.203125 C 2.425781 -0.429688 2.023438 -0.75 1.703125 -1.15625 C 1.378906 -1.5625 1.132812 -2.050781 0.96875 -2.625 C 0.800781 -3.207031 0.71875 -3.847656 0.71875 -4.546875 C 0.71875 -5.222656 0.804688 -5.847656 0.984375 -6.421875 C 1.160156 -6.992188 1.414062 -7.484375 1.75 -7.890625 C 2.09375 -8.296875 2.519531 -8.613281 3.03125 -8.84375 C 3.539062 -9.070312 4.128906 -9.1875 4.796875 -9.1875 Z M 4.796875 -9.1875 "/></g></g></g><g fill="#000000" fill-opacity="1"><g transform="translate(207.133332, 240.114169)"><g><path d="M 2.96875 -0.625 L 5.421875 -0.625 C 5.617188 -0.625 5.785156 -0.648438 5.921875 -0.703125 C 6.066406 -0.765625 6.1875 -0.84375 6.28125 -0.9375 C 6.382812 -1.03125 6.460938 -1.140625 6.515625 -1.265625 C 6.566406 -1.398438 6.601562 -1.535156 6.625 -1.671875 L 6.703125 -2.21875 L 7.375 -2.21875 L 7.28125 0 L 0.484375 0 L 0.484375 -0.53125 L 0.640625 -0.53125 C 0.785156 -0.53125 0.921875 -0.539062 1.046875 -0.5625 C 1.171875 -0.582031 1.28125 -0.617188 1.375 -0.671875 C 1.46875 -0.734375 1.539062 -0.820312 1.59375 -0.9375 C 1.65625 -1.050781 1.6875 -1.195312 1.6875 -1.375 L 1.6875 -7.609375 C 1.6875 -7.804688 1.660156 -7.960938 1.609375 -8.078125 C 1.554688 -8.203125 1.476562 -8.296875 1.375 -8.359375 C 1.28125 -8.429688 1.171875 -8.476562 1.046875 -8.5 C 0.921875 -8.519531 0.785156 -8.53125 0.640625 -8.53125 L 0.484375 -8.53125 L 0.484375 -9.0625 L 6.875 -9.0625 L 6.9375 -6.84375 L 6.28125 -6.84375 L 6.21875 -7.390625 C 6.195312 -7.523438 6.160156 -7.65625 6.109375 -7.78125 C 6.066406 -7.90625 6 -8.015625 5.90625 -8.109375 C 5.820312 -8.210938 5.710938 -8.289062 5.578125 -8.34375 C 5.453125 -8.394531 5.289062 -8.421875 5.09375 -8.421875 L 2.96875 -8.421875 L 2.96875 -5.046875 L 6.03125 -5.046875 L 6.03125 -4.421875 L 2.96875 -4.421875 Z M 2.96875 -0.625 "/></g></g></g><g fill="#000000" fill-opacity="1"><g transform="translate(215.033371, 240.114169)"><g/></g></g><g fill="#000000" fill-opacity="1"><g transform="translate(218.327118, 240.114169)"><g><path d="M 2.96875 -0.625 L 5.421875 -0.625 C 5.617188 -0.625 5.785156 -0.648438 5.921875 -0.703125 C 6.066406 -0.765625 6.1875 -0.84375 6.28125 -0.9375 C 6.382812 -1.03125 6.460938 -1.140625 6.515625 -1.265625 C 6.566406 -1.398438 6.601562 -1.535156 6.625 -1.671875 L 6.703125 -2.21875 L 7.375 -2.21875 L 7.28125 0 L 0.484375 0 L 0.484375 -0.53125 L 0.640625 -0.53125 C 0.785156 -0.53125 0.921875 -0.539062 1.046875 -0.5625 C 1.171875 -0.582031 1.28125 -0.617188 1.375 -0.671875 C 1.46875 -0.734375 1.539062 -0.820312 1.59375 -0.9375 C 1.65625 -1.050781 1.6875 -1.195312 1.6875 -1.375 L 1.6875 -7.609375 C 1.6875 -7.804688 1.660156 -7.960938 1.609375 -8.078125 C 1.554688 -8.203125 1.476562 -8.296875 1.375 -8.359375 C 1.28125 -8.429688 1.171875 -8.476562 1.046875 -8.5 C 0.921875 -8.519531 0.785156 -8.53125 0.640625 -8.53125 L 0.484375 -8.53125 L 0.484375 -9.0625 L 6.875 -9.0625 L 6.9375 -6.84375 L 6.28125 -6.84375 L 6.21875 -7.390625 C 6.195312 -7.523438 6.160156 -7.65625 6.109375 -7.78125 C 6.066406 -7.90625 6 -8.015625 5.90625 -8.109375 C 5.820312 -8.210938 5.710938 -8.289062 5.578125 -8.34375 C 5.453125 -8.394531 5.289062 -8.421875 5.09375 -8.421875 L 2.96875 -8.421875 L 2.96875 -5.046875 L 6.03125 -5.046875 L 6.03125 -4.421875 L 2.96875 -4.421875 Z M 2.96875 -0.625 "/></g></g></g><g fill="#000000" fill-opacity="1"><g transform="translate(226.227157, 240.114169)"><g><path d="M 4.515625 -1.4375 C 4.515625 -1.238281 4.539062 -1.078125 4.59375 -0.953125 C 4.65625 -0.835938 4.734375 -0.75 4.828125 -0.6875 C 4.921875 -0.625 5.03125 -0.582031 5.15625 -0.5625 C 5.28125 -0.539062 5.414062 -0.53125 5.5625 -0.53125 L 5.84375 -0.53125 L 5.84375 0 L 1.90625 0 L 1.90625 -0.53125 L 2.1875 -0.53125 C 2.332031 -0.53125 2.46875 -0.539062 2.59375 -0.5625 C 2.71875 -0.582031 2.828125 -0.617188 2.921875 -0.671875 C 3.015625 -0.734375 3.085938 -0.820312 3.140625 -0.9375 C 3.203125 -1.050781 3.234375 -1.195312 3.234375 -1.375 L 3.234375 -8.421875 L 2.015625 -8.421875 C 1.828125 -8.421875 1.671875 -8.394531 1.546875 -8.34375 C 1.421875 -8.289062 1.316406 -8.210938 1.234375 -8.109375 C 1.160156 -8.015625 1.101562 -7.90625 1.0625 -7.78125 C 1.019531 -7.65625 0.992188 -7.523438 0.984375 -7.390625 L 0.90625 -6.84375 L 0.25 -6.84375 L 0.3125 -9.0625 L 7.453125 -9.0625 L 7.515625 -6.84375 L 6.859375 -6.84375 L 6.796875 -7.390625 C 6.785156 -7.523438 6.757812 -7.65625 6.71875 -7.78125 C 6.675781 -7.90625 6.613281 -8.015625 6.53125 -8.109375 C 6.457031 -8.210938 6.351562 -8.289062 6.21875 -8.34375 C 6.09375 -8.394531 5.9375 -8.421875 5.75 -8.421875 L 4.515625 -8.421875 Z M 4.515625 -1.4375 "/></g></g></g><g fill="#000000" fill-opacity="1"><g transform="translate(233.99718, 240.114169)"><g/></g></g><g fill="#000000" fill-opacity="1"><g transform="translate(237.290927, 240.114169)"><g><path d="M 4.796875 -9.1875 C 5.234375 -9.1875 5.609375 -9.148438 5.921875 -9.078125 C 6.242188 -9.003906 6.507812 -8.90625 6.71875 -8.78125 C 6.9375 -8.65625 7.097656 -8.503906 7.203125 -8.328125 C 7.304688 -8.148438 7.359375 -7.960938 7.359375 -7.765625 C 7.359375 -7.628906 7.328125 -7.503906 7.265625 -7.390625 C 7.210938 -7.285156 7.132812 -7.191406 7.03125 -7.109375 C 6.9375 -7.035156 6.820312 -6.976562 6.6875 -6.9375 C 6.5625 -6.894531 6.414062 -6.875 6.25 -6.875 C 6.25 -7.070312 6.222656 -7.265625 6.171875 -7.453125 C 6.128906 -7.648438 6.046875 -7.828125 5.921875 -7.984375 C 5.804688 -8.140625 5.65625 -8.265625 5.46875 -8.359375 C 5.28125 -8.460938 5.046875 -8.515625 4.765625 -8.515625 C 4.285156 -8.515625 3.878906 -8.425781 3.546875 -8.25 C 3.210938 -8.070312 2.941406 -7.8125 2.734375 -7.46875 C 2.523438 -7.132812 2.367188 -6.722656 2.265625 -6.234375 C 2.171875 -5.742188 2.125 -5.179688 2.125 -4.546875 C 2.125 -3.972656 2.171875 -3.453125 2.265625 -2.984375 C 2.367188 -2.515625 2.53125 -2.109375 2.75 -1.765625 C 2.96875 -1.429688 3.238281 -1.171875 3.5625 -0.984375 C 3.894531 -0.804688 4.296875 -0.71875 4.765625 -0.71875 C 5.078125 -0.71875 5.351562 -0.742188 5.59375 -0.796875 C 5.832031 -0.859375 6.039062 -0.9375 6.21875 -1.03125 C 6.40625 -1.132812 6.566406 -1.25 6.703125 -1.375 C 6.835938 -1.507812 6.957031 -1.648438 7.0625 -1.796875 C 7.132812 -1.742188 7.191406 -1.675781 7.234375 -1.59375 C 7.285156 -1.519531 7.3125 -1.421875 7.3125 -1.296875 C 7.3125 -1.128906 7.253906 -0.960938 7.140625 -0.796875 C 7.035156 -0.628906 6.867188 -0.476562 6.640625 -0.34375 C 6.421875 -0.207031 6.140625 -0.09375 5.796875 0 C 5.453125 0.0820312 5.046875 0.125 4.578125 0.125 C 3.941406 0.125 3.382812 0.015625 2.90625 -0.203125 C 2.425781 -0.429688 2.023438 -0.75 1.703125 -1.15625 C 1.378906 -1.5625 1.132812 -2.050781 0.96875 -2.625 C 0.800781 -3.207031 0.71875 -3.847656 0.71875 -4.546875 C 0.71875 -5.222656 0.804688 -5.847656 0.984375 -6.421875 C 1.160156 -6.992188 1.414062 -7.484375 1.75 -7.890625 C 2.09375 -8.296875 2.519531 -8.613281 3.03125 -8.84375 C 3.539062 -9.070312 4.128906 -9.1875 4.796875 -9.1875 Z M 4.796875 -9.1875 "/></g></g></g><g fill="#000000" fill-opacity="1"><g transform="translate(245.073332, 240.114169)"><g><path d="M 2.5625 -3.03125 L 2.078125 -1.703125 C 2.046875 -1.597656 2.019531 -1.492188 2 -1.390625 C 1.976562 -1.296875 1.96875 -1.21875 1.96875 -1.15625 C 1.96875 -0.9375 2.035156 -0.773438 2.171875 -0.671875 C 2.304688 -0.578125 2.519531 -0.53125 2.8125 -0.53125 L 3.09375 -0.53125 L 3.09375 0 L 0 0 L 0 -0.53125 L 0.234375 -0.53125 C 0.359375 -0.53125 0.460938 -0.539062 0.546875 -0.5625 C 0.640625 -0.59375 0.71875 -0.644531 0.78125 -0.71875 C 0.851562 -0.800781 0.921875 -0.90625 0.984375 -1.03125 C 1.054688 -1.15625 1.128906 -1.320312 1.203125 -1.53125 L 4.015625 -9.0625 L 5.015625 -9.0625 L 7.875 -1.203125 C 7.925781 -1.078125 7.976562 -0.96875 8.03125 -0.875 C 8.082031 -0.789062 8.140625 -0.722656 8.203125 -0.671875 C 8.273438 -0.617188 8.359375 -0.582031 8.453125 -0.5625 C 8.546875 -0.539062 8.65625 -0.53125 8.78125 -0.53125 L 8.953125 -0.53125 L 8.953125 0 L 5.453125 0 L 5.453125 -0.53125 L 5.75 -0.53125 C 6.257812 -0.53125 6.515625 -0.734375 6.515625 -1.140625 C 6.515625 -1.210938 6.503906 -1.285156 6.484375 -1.359375 C 6.460938 -1.429688 6.4375 -1.515625 6.40625 -1.609375 L 5.890625 -3.03125 Z M 4.875 -5.890625 C 4.75 -6.265625 4.628906 -6.613281 4.515625 -6.9375 C 4.410156 -7.269531 4.320312 -7.585938 4.25 -7.890625 C 4.21875 -7.734375 4.179688 -7.582031 4.140625 -7.4375 C 4.109375 -7.300781 4.066406 -7.160156 4.015625 -7.015625 C 3.972656 -6.867188 3.921875 -6.710938 3.859375 -6.546875 C 3.804688 -6.378906 3.742188 -6.195312 3.671875 -6 L 2.8125 -3.671875 L 5.671875 -3.671875 Z M 4.875 -5.890625 "/></g></g></g><g fill="#000000" fill-opacity="1"><g transform="translate(254.013502, 240.114169)"><g><path d="M 3.796875 0 L 1.0625 -7.859375 C 1.019531 -7.984375 0.972656 -8.085938 0.921875 -8.171875 C 0.867188 -8.265625 0.804688 -8.335938 0.734375 -8.390625 C 0.660156 -8.441406 0.578125 -8.476562 0.484375 -8.5 C 0.398438 -8.519531 0.296875 -8.53125 0.171875 -8.53125 L 0 -8.53125 L 0 -9.0625 L 3.484375 -9.0625 L 3.484375 -8.53125 L 3.203125 -8.53125 C 2.941406 -8.53125 2.75 -8.476562 2.625 -8.375 C 2.5 -8.28125 2.4375 -8.128906 2.4375 -7.921875 C 2.4375 -7.847656 2.441406 -7.773438 2.453125 -7.703125 C 2.472656 -7.628906 2.503906 -7.546875 2.546875 -7.453125 L 3.9375 -3.328125 C 4.0625 -2.953125 4.171875 -2.585938 4.265625 -2.234375 C 4.359375 -1.878906 4.4375 -1.550781 4.5 -1.25 C 4.570312 -1.550781 4.648438 -1.875 4.734375 -2.21875 C 4.828125 -2.5625 4.945312 -2.929688 5.09375 -3.328125 L 6.484375 -7.359375 C 6.515625 -7.460938 6.539062 -7.5625 6.5625 -7.65625 C 6.582031 -7.75 6.59375 -7.832031 6.59375 -7.90625 C 6.59375 -8.125 6.523438 -8.28125 6.390625 -8.375 C 6.253906 -8.476562 6.046875 -8.53125 5.765625 -8.53125 L 5.46875 -8.53125 L 5.46875 -9.0625 L 8.5625 -9.0625 L 8.5625 -8.53125 L 8.3125 -8.53125 C 8.195312 -8.53125 8.09375 -8.515625 8 -8.484375 C 7.914062 -8.460938 7.835938 -8.414062 7.765625 -8.34375 C 7.691406 -8.269531 7.625 -8.164062 7.5625 -8.03125 C 7.5 -7.90625 7.429688 -7.742188 7.359375 -7.546875 L 4.734375 0 Z M 3.796875 0 "/></g></g></g><g fill="#000000" fill-opacity="1"><g transform="translate(262.569814, 240.114169)"><g><path d="M 2.5625 -3.03125 L 2.078125 -1.703125 C 2.046875 -1.597656 2.019531 -1.492188 2 -1.390625 C 1.976562 -1.296875 1.96875 -1.21875 1.96875 -1.15625 C 1.96875 -0.9375 2.035156 -0.773438 2.171875 -0.671875 C 2.304688 -0.578125 2.519531 -0.53125 2.8125 -0.53125 L 3.09375 -0.53125 L 3.09375 0 L 0 0 L 0 -0.53125 L 0.234375 -0.53125 C 0.359375 -0.53125 0.460938 -0.539062 0.546875 -0.5625 C 0.640625 -0.59375 0.71875 -0.644531 0.78125 -0.71875 C 0.851562 -0.800781 0.921875 -0.90625 0.984375 -1.03125 C 1.054688 -1.15625 1.128906 -1.320312 1.203125 -1.53125 L 4.015625 -9.0625 L 5.015625 -9.0625 L 7.875 -1.203125 C 7.925781 -1.078125 7.976562 -0.96875 8.03125 -0.875 C 8.082031 -0.789062 8.140625 -0.722656 8.203125 -0.671875 C 8.273438 -0.617188 8.359375 -0.582031 8.453125 -0.5625 C 8.546875 -0.539062 8.65625 -0.53125 8.78125 -0.53125 L 8.953125 -0.53125 L 8.953125 0 L 5.453125 0 L 5.453125 -0.53125 L 5.75 -0.53125 C 6.257812 -0.53125 6.515625 -0.734375 6.515625 -1.140625 C 6.515625 -1.210938 6.503906 -1.285156 6.484375 -1.359375 C 6.460938 -1.429688 6.4375 -1.515625 6.40625 -1.609375 L 5.890625 -3.03125 Z M 4.875 -5.890625 C 4.75 -6.265625 4.628906 -6.613281 4.515625 -6.9375 C 4.410156 -7.269531 4.320312 -7.585938 4.25 -7.890625 C 4.21875 -7.734375 4.179688 -7.582031 4.140625 -7.4375 C 4.109375 -7.300781 4.066406 -7.160156 4.015625 -7.015625 C 3.972656 -6.867188 3.921875 -6.710938 3.859375 -6.546875 C 3.804688 -6.378906 3.742188 -6.195312 3.671875 -6 L 2.8125 -3.671875 L 5.671875 -3.671875 Z M 4.875 -5.890625 "/></g></g></g><g fill="#000000" fill-opacity="1"><g transform="translate(271.509983, 240.114169)"><g><path d="M 0.484375 0 L 0.484375 -0.53125 L 0.640625 -0.53125 C 0.785156 -0.53125 0.921875 -0.539062 1.046875 -0.5625 C 1.171875 -0.582031 1.28125 -0.625 1.375 -0.6875 C 1.476562 -0.75 1.554688 -0.835938 1.609375 -0.953125 C 1.660156 -1.078125 1.6875 -1.238281 1.6875 -1.4375 L 1.6875 -7.609375 C 1.6875 -7.804688 1.660156 -7.960938 1.609375 -8.078125 C 1.554688 -8.203125 1.476562 -8.296875 1.375 -8.359375 C 1.28125 -8.429688 1.171875 -8.476562 1.046875 -8.5 C 0.921875 -8.519531 0.785156 -8.53125 0.640625 -8.53125 L 0.484375 -8.53125 L 0.484375 -9.0625 L 4.171875 -9.0625 L 4.171875 -8.53125 L 4.015625 -8.53125 C 3.867188 -8.53125 3.734375 -8.519531 3.609375 -8.5 C 3.484375 -8.476562 3.375 -8.4375 3.28125 -8.375 C 3.1875 -8.3125 3.109375 -8.222656 3.046875 -8.109375 C 2.992188 -7.992188 2.96875 -7.84375 2.96875 -7.65625 L 2.96875 -0.625 L 5.46875 -0.625 C 5.65625 -0.625 5.816406 -0.660156 5.953125 -0.734375 C 6.085938 -0.804688 6.195312 -0.894531 6.28125 -1 C 6.375 -1.113281 6.441406 -1.238281 6.484375 -1.375 C 6.535156 -1.507812 6.566406 -1.644531 6.578125 -1.78125 L 6.703125 -2.71875 L 7.375 -2.71875 L 7.28125 0 Z M 0.484375 0 "/></g></g></g><g fill="#000000" fill-opacity="1"><g transform="translate(279.410023, 240.114169)"><g><path d="M 0.484375 0 L 0.484375 -0.53125 L 0.640625 -0.53125 C 0.785156 -0.53125 0.921875 -0.539062 1.046875 -0.5625 C 1.171875 -0.582031 1.28125 -0.625 1.375 -0.6875 C 1.476562 -0.75 1.554688 -0.835938 1.609375 -0.953125 C 1.660156 -1.078125 1.6875 -1.238281 1.6875 -1.4375 L 1.6875 -7.609375 C 1.6875 -7.804688 1.660156 -7.960938 1.609375 -8.078125 C 1.554688 -8.203125 1.476562 -8.296875 1.375 -8.359375 C 1.28125 -8.429688 1.171875 -8.476562 1.046875 -8.5 C 0.921875 -8.519531 0.785156 -8.53125 0.640625 -8.53125 L 0.484375 -8.53125 L 0.484375 -9.0625 L 4.171875 -9.0625 L 4.171875 -8.53125 L 4.015625 -8.53125 C 3.867188 -8.53125 3.726562 -8.519531 3.59375 -8.5 C 3.46875 -8.476562 3.359375 -8.429688 3.265625 -8.359375 C 3.179688 -8.296875 3.109375 -8.203125 3.046875 -8.078125 C 2.992188 -7.960938 2.96875 -7.804688 2.96875 -7.609375 L 2.96875 -1.4375 C 2.96875 -1.238281 2.992188 -1.078125 3.046875 -0.953125 C 3.109375 -0.835938 3.179688 -0.75 3.265625 -0.6875 C 3.359375 -0.625 3.46875 -0.582031 3.59375 -0.5625 C 3.726562 -0.539062 3.867188 -0.53125 4.015625 -0.53125 L 4.171875 -0.53125 L 4.171875 0 Z M 0.484375 0 "/></g></g></g><g fill="#000000" fill-opacity="1"><g transform="translate(284.065845, 240.114169)"><g><path d="M 2.96875 -0.625 L 5.421875 -0.625 C 5.617188 -0.625 5.785156 -0.648438 5.921875 -0.703125 C 6.066406 -0.765625 6.1875 -0.84375 6.28125 -0.9375 C 6.382812 -1.03125 6.460938 -1.140625 6.515625 -1.265625 C 6.566406 -1.398438 6.601562 -1.535156 6.625 -1.671875 L 6.703125 -2.21875 L 7.375 -2.21875 L 7.28125 0 L 0.484375 0 L 0.484375 -0.53125 L 0.640625 -0.53125 C 0.785156 -0.53125 0.921875 -0.539062 1.046875 -0.5625 C 1.171875 -0.582031 1.28125 -0.617188 1.375 -0.671875 C 1.46875 -0.734375 1.539062 -0.820312 1.59375 -0.9375 C 1.65625 -1.050781 1.6875 -1.195312 1.6875 -1.375 L 1.6875 -7.609375 C 1.6875 -7.804688 1.660156 -7.960938 1.609375 -8.078125 C 1.554688 -8.203125 1.476562 -8.296875 1.375 -8.359375 C 1.28125 -8.429688 1.171875 -8.476562 1.046875 -8.5 C 0.921875 -8.519531 0.785156 -8.53125 0.640625 -8.53125 L 0.484375 -8.53125 L 0.484375 -9.0625 L 6.875 -9.0625 L 6.9375 -6.84375 L 6.28125 -6.84375 L 6.21875 -7.390625 C 6.195312 -7.523438 6.160156 -7.65625 6.109375 -7.78125 C 6.066406 -7.90625 6 -8.015625 5.90625 -8.109375 C 5.820312 -8.210938 5.710938 -8.289062 5.578125 -8.34375 C 5.453125 -8.394531 5.289062 -8.421875 5.09375 -8.421875 L 2.96875 -8.421875 L 2.96875 -5.046875 L 6.03125 -5.046875 L 6.03125 -4.421875 L 2.96875 -4.421875 Z M 2.96875 -0.625 "/></g></g></g><g fill="#000000" fill-opacity="1"><g transform="translate(291.965884, 240.114169)"><g><path d="M 7.03125 -1.546875 C 7.25 -1.210938 7.457031 -0.957031 7.65625 -0.78125 C 7.851562 -0.613281 8.085938 -0.53125 8.359375 -0.53125 L 8.40625 -0.53125 L 8.40625 0 L 8.21875 0 C 7.820312 0 7.492188 -0.015625 7.234375 -0.046875 C 6.984375 -0.078125 6.769531 -0.128906 6.59375 -0.203125 C 6.414062 -0.285156 6.265625 -0.398438 6.140625 -0.546875 C 6.015625 -0.703125 5.878906 -0.898438 5.734375 -1.140625 L 4.015625 -4 L 2.96875 -4 L 2.96875 -1.375 C 2.96875 -1.195312 2.992188 -1.050781 3.046875 -0.9375 C 3.109375 -0.820312 3.1875 -0.734375 3.28125 -0.671875 C 3.375 -0.617188 3.484375 -0.582031 3.609375 -0.5625 C 3.734375 -0.539062 3.867188 -0.53125 4.015625 -0.53125 L 4.171875 -0.53125 L 4.171875 0 L 0.484375 0 L 0.484375 -0.53125 L 0.640625 -0.53125 C 0.785156 -0.53125 0.921875 -0.539062 1.046875 -0.5625 C 1.171875 -0.582031 1.28125 -0.617188 1.375 -0.671875 C 1.46875 -0.734375 1.539062 -0.820312 1.59375 -0.9375 C 1.65625 -1.050781 1.6875 -1.195312 1.6875 -1.375 L 1.6875 -7.65625 C 1.6875 -7.84375 1.65625 -7.992188 1.59375 -8.109375 C 1.539062 -8.222656 1.46875 -8.3125 1.375 -8.375 C 1.28125 -8.4375 1.171875 -8.476562 1.046875 -8.5 C 0.921875 -8.519531 0.785156 -8.53125 0.640625 -8.53125 L 0.484375 -8.53125 L 0.484375 -9.0625 L 3.890625 -9.0625 C 4.992188 -9.0625 5.8125 -8.859375 6.34375 -8.453125 C 6.882812 -8.046875 7.15625 -7.429688 7.15625 -6.609375 C 7.15625 -6.273438 7.097656 -5.976562 6.984375 -5.71875 C 6.878906 -5.46875 6.738281 -5.25 6.5625 -5.0625 C 6.382812 -4.875 6.179688 -4.71875 5.953125 -4.59375 C 5.734375 -4.46875 5.515625 -4.367188 5.296875 -4.296875 Z M 2.96875 -4.59375 L 3.859375 -4.59375 C 4.234375 -4.59375 4.539062 -4.632812 4.78125 -4.71875 C 5.03125 -4.800781 5.226562 -4.921875 5.375 -5.078125 C 5.53125 -5.242188 5.640625 -5.453125 5.703125 -5.703125 C 5.765625 -5.953125 5.796875 -6.242188 5.796875 -6.578125 C 5.796875 -6.910156 5.757812 -7.195312 5.6875 -7.4375 C 5.625 -7.675781 5.507812 -7.867188 5.34375 -8.015625 C 5.1875 -8.171875 4.984375 -8.28125 4.734375 -8.34375 C 4.492188 -8.414062 4.191406 -8.453125 3.828125 -8.453125 L 2.96875 -8.453125 Z M 2.96875 -4.59375 "/></g></g></g><g fill="#000000" fill-opacity="1"><g transform="translate(300.280737, 240.114169)"><g><path d="M 2.96875 -0.625 L 5.421875 -0.625 C 5.617188 -0.625 5.785156 -0.648438 5.921875 -0.703125 C 6.066406 -0.765625 6.1875 -0.84375 6.28125 -0.9375 C 6.382812 -1.03125 6.460938 -1.140625 6.515625 -1.265625 C 6.566406 -1.398438 6.601562 -1.535156 6.625 -1.671875 L 6.703125 -2.21875 L 7.375 -2.21875 L 7.28125 0 L 0.484375 0 L 0.484375 -0.53125 L 0.640625 -0.53125 C 0.785156 -0.53125 0.921875 -0.539062 1.046875 -0.5625 C 1.171875 -0.582031 1.28125 -0.617188 1.375 -0.671875 C 1.46875 -0.734375 1.539062 -0.820312 1.59375 -0.9375 C 1.65625 -1.050781 1.6875 -1.195312 1.6875 -1.375 L 1.6875 -7.609375 C 1.6875 -7.804688 1.660156 -7.960938 1.609375 -8.078125 C 1.554688 -8.203125 1.476562 -8.296875 1.375 -8.359375 C 1.28125 -8.429688 1.171875 -8.476562 1.046875 -8.5 C 0.921875 -8.519531 0.785156 -8.53125 0.640625 -8.53125 L 0.484375 -8.53125 L 0.484375 -9.0625 L 6.875 -9.0625 L 6.9375 -6.84375 L 6.28125 -6.84375 L 6.21875 -7.390625 C 6.195312 -7.523438 6.160156 -7.65625 6.109375 -7.78125 C 6.066406 -7.90625 6 -8.015625 5.90625 -8.109375 C 5.820312 -8.210938 5.710938 -8.289062 5.578125 -8.34375 C 5.453125 -8.394531 5.289062 -8.421875 5.09375 -8.421875 L 2.96875 -8.421875 L 2.96875 -5.046875 L 6.03125 -5.046875 L 6.03125 -4.421875 L 2.96875 -4.421875 Z M 2.96875 -0.625 "/></g></g></g><g fill="#000000" fill-opacity="1"><g transform="translate(175.481185, 257.364168)"><g><path d="M 0.484375 0 L 0.484375 -0.53125 L 0.640625 -0.53125 C 0.785156 -0.53125 0.921875 -0.539062 1.046875 -0.5625 C 1.171875 -0.582031 1.28125 -0.625 1.375 -0.6875 C 1.476562 -0.75 1.554688 -0.835938 1.609375 -0.953125 C 1.660156 -1.078125 1.6875 -1.238281 1.6875 -1.4375 L 1.6875 -7.609375 C 1.6875 -7.804688 1.660156 -7.960938 1.609375 -8.078125 C 1.554688 -8.203125 1.476562 -8.296875 1.375 -8.359375 C 1.28125 -8.429688 1.171875 -8.476562 1.046875 -8.5 C 0.921875 -8.519531 0.785156 -8.53125 0.640625 -8.53125 L 0.484375 -8.53125 L 0.484375 -9.0625 L 4.171875 -9.0625 L 4.171875 -8.53125 L 4.015625 -8.53125 C 3.867188 -8.53125 3.726562 -8.519531 3.59375 -8.5 C 3.46875 -8.476562 3.359375 -8.429688 3.265625 -8.359375 C 3.179688 -8.296875 3.109375 -8.203125 3.046875 -8.078125 C 2.992188 -7.960938 2.96875 -7.804688 2.96875 -7.609375 L 2.96875 -1.4375 C 2.96875 -1.238281 2.992188 -1.078125 3.046875 -0.953125 C 3.109375 -0.835938 3.179688 -0.75 3.265625 -0.6875 C 3.359375 -0.625 3.46875 -0.582031 3.59375 -0.5625 C 3.726562 -0.539062 3.867188 -0.53125 4.015625 -0.53125 L 4.171875 -0.53125 L 4.171875 0 Z M 0.484375 0 "/></g></g></g><g fill="#000000" fill-opacity="1"><g transform="translate(180.137008, 257.364168)"><g><path d="M 7.21875 0 L 2.453125 -7.3125 L 2.453125 -1.4375 C 2.453125 -1.238281 2.476562 -1.078125 2.53125 -0.953125 C 2.59375 -0.835938 2.671875 -0.75 2.765625 -0.6875 C 2.859375 -0.625 2.96875 -0.582031 3.09375 -0.5625 C 3.226562 -0.539062 3.363281 -0.53125 3.5 -0.53125 L 3.671875 -0.53125 L 3.671875 0 L 0.484375 0 L 0.484375 -0.53125 L 0.640625 -0.53125 C 0.785156 -0.53125 0.921875 -0.539062 1.046875 -0.5625 C 1.171875 -0.582031 1.28125 -0.625 1.375 -0.6875 C 1.476562 -0.75 1.554688 -0.835938 1.609375 -0.953125 C 1.660156 -1.078125 1.6875 -1.238281 1.6875 -1.4375 L 1.6875 -7.65625 C 1.6875 -7.84375 1.65625 -7.992188 1.59375 -8.109375 C 1.539062 -8.222656 1.46875 -8.3125 1.375 -8.375 C 1.28125 -8.4375 1.171875 -8.476562 1.046875 -8.5 C 0.921875 -8.519531 0.785156 -8.53125 0.640625 -8.53125 L 0.484375 -8.53125 L 0.484375 -9.0625 L 2.8125 -9.0625 L 7.34375 -2.046875 L 7.34375 -7.65625 C 7.34375 -7.84375 7.316406 -7.992188 7.265625 -8.109375 C 7.210938 -8.222656 7.132812 -8.3125 7.03125 -8.375 C 6.9375 -8.4375 6.828125 -8.476562 6.703125 -8.5 C 6.578125 -8.519531 6.445312 -8.53125 6.3125 -8.53125 L 6.140625 -8.53125 L 6.140625 -9.0625 L 9.328125 -9.0625 L 9.328125 -8.53125 L 9.15625 -8.53125 C 9.019531 -8.53125 8.882812 -8.519531 8.75 -8.5 C 8.625 -8.476562 8.515625 -8.429688 8.421875 -8.359375 C 8.328125 -8.296875 8.253906 -8.203125 8.203125 -8.078125 C 8.148438 -7.960938 8.125 -7.804688 8.125 -7.609375 L 8.125 0 Z M 7.21875 0 "/></g></g></g><g fill="#000000" fill-opacity="1"><g transform="translate(189.813936, 257.364168)"><g><path d="M 8.5 -4.546875 C 8.5 -3.847656 8.410156 -3.21875 8.234375 -2.65625 C 8.066406 -2.101562 7.8125 -1.628906 7.46875 -1.234375 C 7.125 -0.835938 6.691406 -0.53125 6.171875 -0.3125 C 5.660156 -0.101562 5.0625 0 4.375 0 L 0.484375 0 L 0.484375 -0.53125 L 0.640625 -0.53125 C 0.785156 -0.53125 0.921875 -0.539062 1.046875 -0.5625 C 1.171875 -0.582031 1.28125 -0.625 1.375 -0.6875 C 1.476562 -0.75 1.554688 -0.835938 1.609375 -0.953125 C 1.660156 -1.078125 1.6875 -1.238281 1.6875 -1.4375 L 1.6875 -7.65625 C 1.6875 -7.84375 1.65625 -7.992188 1.59375 -8.109375 C 1.539062 -8.222656 1.46875 -8.3125 1.375 -8.375 C 1.28125 -8.4375 1.171875 -8.476562 1.046875 -8.5 C 0.921875 -8.519531 0.785156 -8.53125 0.640625 -8.53125 L 0.484375 -8.53125 L 0.484375 -9.0625 L 4.375 -9.0625 C 5.019531 -9.0625 5.597656 -8.957031 6.109375 -8.75 C 6.617188 -8.550781 7.050781 -8.257812 7.40625 -7.875 C 7.757812 -7.488281 8.03125 -7.015625 8.21875 -6.453125 C 8.40625 -5.898438 8.5 -5.265625 8.5 -4.546875 Z M 4.0625 -0.640625 C 4.570312 -0.640625 5.015625 -0.722656 5.390625 -0.890625 C 5.765625 -1.066406 6.078125 -1.320312 6.328125 -1.65625 C 6.585938 -1.988281 6.78125 -2.394531 6.90625 -2.875 C 7.03125 -3.351562 7.09375 -3.910156 7.09375 -4.546875 C 7.09375 -5.804688 6.84375 -6.765625 6.34375 -7.421875 C 5.84375 -8.085938 5.085938 -8.421875 4.078125 -8.421875 L 2.96875 -8.421875 L 2.96875 -0.640625 Z M 4.0625 -0.640625 "/></g></g></g><g fill="#000000" fill-opacity="1"><g transform="translate(199.032712, 257.364168)"><g><path d="M 2.96875 -0.625 L 5.421875 -0.625 C 5.617188 -0.625 5.785156 -0.648438 5.921875 -0.703125 C 6.066406 -0.765625 6.1875 -0.84375 6.28125 -0.9375 C 6.382812 -1.03125 6.460938 -1.140625 6.515625 -1.265625 C 6.566406 -1.398438 6.601562 -1.535156 6.625 -1.671875 L 6.703125 -2.21875 L 7.375 -2.21875 L 7.28125 0 L 0.484375 0 L 0.484375 -0.53125 L 0.640625 -0.53125 C 0.785156 -0.53125 0.921875 -0.539062 1.046875 -0.5625 C 1.171875 -0.582031 1.28125 -0.617188 1.375 -0.671875 C 1.46875 -0.734375 1.539062 -0.820312 1.59375 -0.9375 C 1.65625 -1.050781 1.6875 -1.195312 1.6875 -1.375 L 1.6875 -7.609375 C 1.6875 -7.804688 1.660156 -7.960938 1.609375 -8.078125 C 1.554688 -8.203125 1.476562 -8.296875 1.375 -8.359375 C 1.28125 -8.429688 1.171875 -8.476562 1.046875 -8.5 C 0.921875 -8.519531 0.785156 -8.53125 0.640625 -8.53125 L 0.484375 -8.53125 L 0.484375 -9.0625 L 6.875 -9.0625 L 6.9375 -6.84375 L 6.28125 -6.84375 L 6.21875 -7.390625 C 6.195312 -7.523438 6.160156 -7.65625 6.109375 -7.78125 C 6.066406 -7.90625 6 -8.015625 5.90625 -8.109375 C 5.820312 -8.210938 5.710938 -8.289062 5.578125 -8.34375 C 5.453125 -8.394531 5.289062 -8.421875 5.09375 -8.421875 L 2.96875 -8.421875 L 2.96875 -5.046875 L 6.03125 -5.046875 L 6.03125 -4.421875 L 2.96875 -4.421875 Z M 2.96875 -0.625 "/></g></g></g><g fill="#000000" fill-opacity="1"><g transform="translate(206.932752, 257.364168)"><g><path d="M 0.484375 0 L 0.484375 -0.53125 L 0.640625 -0.53125 C 0.785156 -0.53125 0.921875 -0.539062 1.046875 -0.5625 C 1.171875 -0.582031 1.28125 -0.625 1.375 -0.6875 C 1.476562 -0.75 1.554688 -0.835938 1.609375 -0.953125 C 1.660156 -1.078125 1.6875 -1.238281 1.6875 -1.4375 L 1.6875 -7.65625 C 1.6875 -7.84375 1.65625 -7.992188 1.59375 -8.109375 C 1.539062 -8.222656 1.46875 -8.3125 1.375 -8.375 C 1.28125 -8.4375 1.171875 -8.476562 1.046875 -8.5 C 0.921875 -8.519531 0.785156 -8.53125 0.640625 -8.53125 L 0.484375 -8.53125 L 0.484375 -9.0625 L 4.046875 -9.0625 C 4.578125 -9.0625 5.035156 -9 5.421875 -8.875 C 5.816406 -8.75 6.144531 -8.570312 6.40625 -8.34375 C 6.664062 -8.113281 6.859375 -7.835938 6.984375 -7.515625 C 7.109375 -7.191406 7.171875 -6.820312 7.171875 -6.40625 C 7.171875 -6.03125 7.109375 -5.664062 6.984375 -5.3125 C 6.867188 -4.96875 6.675781 -4.660156 6.40625 -4.390625 C 6.144531 -4.128906 5.796875 -3.921875 5.359375 -3.765625 C 4.921875 -3.609375 4.390625 -3.53125 3.765625 -3.53125 L 2.96875 -3.53125 L 2.96875 -1.375 C 2.96875 -1.195312 2.992188 -1.050781 3.046875 -0.9375 C 3.109375 -0.820312 3.1875 -0.734375 3.28125 -0.671875 C 3.375 -0.617188 3.484375 -0.582031 3.609375 -0.5625 C 3.734375 -0.539062 3.867188 -0.53125 4.015625 -0.53125 L 4.421875 -0.53125 L 4.421875 0 Z M 2.96875 -4.125 L 3.640625 -4.125 C 4.023438 -4.125 4.351562 -4.164062 4.625 -4.25 C 4.894531 -4.332031 5.117188 -4.460938 5.296875 -4.640625 C 5.472656 -4.816406 5.597656 -5.046875 5.671875 -5.328125 C 5.753906 -5.609375 5.796875 -5.953125 5.796875 -6.359375 C 5.796875 -6.710938 5.757812 -7.019531 5.6875 -7.28125 C 5.625 -7.539062 5.507812 -7.757812 5.34375 -7.9375 C 5.1875 -8.113281 4.984375 -8.242188 4.734375 -8.328125 C 4.492188 -8.410156 4.191406 -8.453125 3.828125 -8.453125 L 2.96875 -8.453125 Z M 2.96875 -4.125 "/></g></g></g><g fill="#000000" fill-opacity="1"><g transform="translate(214.591332, 257.364168)"><g><path d="M 2.96875 -0.625 L 5.421875 -0.625 C 5.617188 -0.625 5.785156 -0.648438 5.921875 -0.703125 C 6.066406 -0.765625 6.1875 -0.84375 6.28125 -0.9375 C 6.382812 -1.03125 6.460938 -1.140625 6.515625 -1.265625 C 6.566406 -1.398438 6.601562 -1.535156 6.625 -1.671875 L 6.703125 -2.21875 L 7.375 -2.21875 L 7.28125 0 L 0.484375 0 L 0.484375 -0.53125 L 0.640625 -0.53125 C 0.785156 -0.53125 0.921875 -0.539062 1.046875 -0.5625 C 1.171875 -0.582031 1.28125 -0.617188 1.375 -0.671875 C 1.46875 -0.734375 1.539062 -0.820312 1.59375 -0.9375 C 1.65625 -1.050781 1.6875 -1.195312 1.6875 -1.375 L 1.6875 -7.609375 C 1.6875 -7.804688 1.660156 -7.960938 1.609375 -8.078125 C 1.554688 -8.203125 1.476562 -8.296875 1.375 -8.359375 C 1.28125 -8.429688 1.171875 -8.476562 1.046875 -8.5 C 0.921875 -8.519531 0.785156 -8.53125 0.640625 -8.53125 L 0.484375 -8.53125 L 0.484375 -9.0625 L 6.875 -9.0625 L 6.9375 -6.84375 L 6.28125 -6.84375 L 6.21875 -7.390625 C 6.195312 -7.523438 6.160156 -7.65625 6.109375 -7.78125 C 6.066406 -7.90625 6 -8.015625 5.90625 -8.109375 C 5.820312 -8.210938 5.710938 -8.289062 5.578125 -8.34375 C 5.453125 -8.394531 5.289062 -8.421875 5.09375 -8.421875 L 2.96875 -8.421875 L 2.96875 -5.046875 L 6.03125 -5.046875 L 6.03125 -4.421875 L 2.96875 -4.421875 Z M 2.96875 -0.625 "/></g></g></g><g fill="#000000" fill-opacity="1"><g transform="translate(222.491371, 257.364168)"><g><path d="M 7.21875 0 L 2.453125 -7.3125 L 2.453125 -1.4375 C 2.453125 -1.238281 2.476562 -1.078125 2.53125 -0.953125 C 2.59375 -0.835938 2.671875 -0.75 2.765625 -0.6875 C 2.859375 -0.625 2.96875 -0.582031 3.09375 -0.5625 C 3.226562 -0.539062 3.363281 -0.53125 3.5 -0.53125 L 3.671875 -0.53125 L 3.671875 0 L 0.484375 0 L 0.484375 -0.53125 L 0.640625 -0.53125 C 0.785156 -0.53125 0.921875 -0.539062 1.046875 -0.5625 C 1.171875 -0.582031 1.28125 -0.625 1.375 -0.6875 C 1.476562 -0.75 1.554688 -0.835938 1.609375 -0.953125 C 1.660156 -1.078125 1.6875 -1.238281 1.6875 -1.4375 L 1.6875 -7.65625 C 1.6875 -7.84375 1.65625 -7.992188 1.59375 -8.109375 C 1.539062 -8.222656 1.46875 -8.3125 1.375 -8.375 C 1.28125 -8.4375 1.171875 -8.476562 1.046875 -8.5 C 0.921875 -8.519531 0.785156 -8.53125 0.640625 -8.53125 L 0.484375 -8.53125 L 0.484375 -9.0625 L 2.8125 -9.0625 L 7.34375 -2.046875 L 7.34375 -7.65625 C 7.34375 -7.84375 7.316406 -7.992188 7.265625 -8.109375 C 7.210938 -8.222656 7.132812 -8.3125 7.03125 -8.375 C 6.9375 -8.4375 6.828125 -8.476562 6.703125 -8.5 C 6.578125 -8.519531 6.445312 -8.53125 6.3125 -8.53125 L 6.140625 -8.53125 L 6.140625 -9.0625 L 9.328125 -9.0625 L 9.328125 -8.53125 L 9.15625 -8.53125 C 9.019531 -8.53125 8.882812 -8.519531 8.75 -8.5 C 8.625 -8.476562 8.515625 -8.429688 8.421875 -8.359375 C 8.328125 -8.296875 8.253906 -8.203125 8.203125 -8.078125 C 8.148438 -7.960938 8.125 -7.804688 8.125 -7.609375 L 8.125 0 Z M 7.21875 0 "/></g></g></g><g fill="#000000" fill-opacity="1"><g transform="translate(232.1683, 257.364168)"><g><path d="M 8.5 -4.546875 C 8.5 -3.847656 8.410156 -3.21875 8.234375 -2.65625 C 8.066406 -2.101562 7.8125 -1.628906 7.46875 -1.234375 C 7.125 -0.835938 6.691406 -0.53125 6.171875 -0.3125 C 5.660156 -0.101562 5.0625 0 4.375 0 L 0.484375 0 L 0.484375 -0.53125 L 0.640625 -0.53125 C 0.785156 -0.53125 0.921875 -0.539062 1.046875 -0.5625 C 1.171875 -0.582031 1.28125 -0.625 1.375 -0.6875 C 1.476562 -0.75 1.554688 -0.835938 1.609375 -0.953125 C 1.660156 -1.078125 1.6875 -1.238281 1.6875 -1.4375 L 1.6875 -7.65625 C 1.6875 -7.84375 1.65625 -7.992188 1.59375 -8.109375 C 1.539062 -8.222656 1.46875 -8.3125 1.375 -8.375 C 1.28125 -8.4375 1.171875 -8.476562 1.046875 -8.5 C 0.921875 -8.519531 0.785156 -8.53125 0.640625 -8.53125 L 0.484375 -8.53125 L 0.484375 -9.0625 L 4.375 -9.0625 C 5.019531 -9.0625 5.597656 -8.957031 6.109375 -8.75 C 6.617188 -8.550781 7.050781 -8.257812 7.40625 -7.875 C 7.757812 -7.488281 8.03125 -7.015625 8.21875 -6.453125 C 8.40625 -5.898438 8.5 -5.265625 8.5 -4.546875 Z M 4.0625 -0.640625 C 4.570312 -0.640625 5.015625 -0.722656 5.390625 -0.890625 C 5.765625 -1.066406 6.078125 -1.320312 6.328125 -1.65625 C 6.585938 -1.988281 6.78125 -2.394531 6.90625 -2.875 C 7.03125 -3.351562 7.09375 -3.910156 7.09375 -4.546875 C 7.09375 -5.804688 6.84375 -6.765625 6.34375 -7.421875 C 5.84375 -8.085938 5.085938 -8.421875 4.078125 -8.421875 L 2.96875 -8.421875 L 2.96875 -0.640625 Z M 4.0625 -0.640625 "/></g></g></g><g fill="#000000" fill-opacity="1"><g transform="translate(241.387076, 257.364168)"><g><path d="M 2.5625 -3.03125 L 2.078125 -1.703125 C 2.046875 -1.597656 2.019531 -1.492188 2 -1.390625 C 1.976562 -1.296875 1.96875 -1.21875 1.96875 -1.15625 C 1.96875 -0.9375 2.035156 -0.773438 2.171875 -0.671875 C 2.304688 -0.578125 2.519531 -0.53125 2.8125 -0.53125 L 3.09375 -0.53125 L 3.09375 0 L 0 0 L 0 -0.53125 L 0.234375 -0.53125 C 0.359375 -0.53125 0.460938 -0.539062 0.546875 -0.5625 C 0.640625 -0.59375 0.71875 -0.644531 0.78125 -0.71875 C 0.851562 -0.800781 0.921875 -0.90625 0.984375 -1.03125 C 1.054688 -1.15625 1.128906 -1.320312 1.203125 -1.53125 L 4.015625 -9.0625 L 5.015625 -9.0625 L 7.875 -1.203125 C 7.925781 -1.078125 7.976562 -0.96875 8.03125 -0.875 C 8.082031 -0.789062 8.140625 -0.722656 8.203125 -0.671875 C 8.273438 -0.617188 8.359375 -0.582031 8.453125 -0.5625 C 8.546875 -0.539062 8.65625 -0.53125 8.78125 -0.53125 L 8.953125 -0.53125 L 8.953125 0 L 5.453125 0 L 5.453125 -0.53125 L 5.75 -0.53125 C 6.257812 -0.53125 6.515625 -0.734375 6.515625 -1.140625 C 6.515625 -1.210938 6.503906 -1.285156 6.484375 -1.359375 C 6.460938 -1.429688 6.4375 -1.515625 6.40625 -1.609375 L 5.890625 -3.03125 Z M 4.875 -5.890625 C 4.75 -6.265625 4.628906 -6.613281 4.515625 -6.9375 C 4.410156 -7.269531 4.320312 -7.585938 4.25 -7.890625 C 4.21875 -7.734375 4.179688 -7.582031 4.140625 -7.4375 C 4.109375 -7.300781 4.066406 -7.160156 4.015625 -7.015625 C 3.972656 -6.867188 3.921875 -6.710938 3.859375 -6.546875 C 3.804688 -6.378906 3.742188 -6.195312 3.671875 -6 L 2.8125 -3.671875 L 5.671875 -3.671875 Z M 4.875 -5.890625 "/></g></g></g><g fill="#000000" fill-opacity="1"><g transform="translate(250.327246, 257.364168)"><g><path d="M 7.21875 0 L 2.453125 -7.3125 L 2.453125 -1.4375 C 2.453125 -1.238281 2.476562 -1.078125 2.53125 -0.953125 C 2.59375 -0.835938 2.671875 -0.75 2.765625 -0.6875 C 2.859375 -0.625 2.96875 -0.582031 3.09375 -0.5625 C 3.226562 -0.539062 3.363281 -0.53125 3.5 -0.53125 L 3.671875 -0.53125 L 3.671875 0 L 0.484375 0 L 0.484375 -0.53125 L 0.640625 -0.53125 C 0.785156 -0.53125 0.921875 -0.539062 1.046875 -0.5625 C 1.171875 -0.582031 1.28125 -0.625 1.375 -0.6875 C 1.476562 -0.75 1.554688 -0.835938 1.609375 -0.953125 C 1.660156 -1.078125 1.6875 -1.238281 1.6875 -1.4375 L 1.6875 -7.65625 C 1.6875 -7.84375 1.65625 -7.992188 1.59375 -8.109375 C 1.539062 -8.222656 1.46875 -8.3125 1.375 -8.375 C 1.28125 -8.4375 1.171875 -8.476562 1.046875 -8.5 C 0.921875 -8.519531 0.785156 -8.53125 0.640625 -8.53125 L 0.484375 -8.53125 L 0.484375 -9.0625 L 2.8125 -9.0625 L 7.34375 -2.046875 L 7.34375 -7.65625 C 7.34375 -7.84375 7.316406 -7.992188 7.265625 -8.109375 C 7.210938 -8.222656 7.132812 -8.3125 7.03125 -8.375 C 6.9375 -8.4375 6.828125 -8.476562 6.703125 -8.5 C 6.578125 -8.519531 6.445312 -8.53125 6.3125 -8.53125 L 6.140625 -8.53125 L 6.140625 -9.0625 L 9.328125 -9.0625 L 9.328125 -8.53125 L 9.15625 -8.53125 C 9.019531 -8.53125 8.882812 -8.519531 8.75 -8.5 C 8.625 -8.476562 8.515625 -8.429688 8.421875 -8.359375 C 8.328125 -8.296875 8.253906 -8.203125 8.203125 -8.078125 C 8.148438 -7.960938 8.125 -7.804688 8.125 -7.609375 L 8.125 0 Z M 7.21875 0 "/></g></g></g><g fill="#000000" fill-opacity="1"><g transform="translate(260.004174, 257.364168)"><g><path d="M 4.515625 -1.4375 C 4.515625 -1.238281 4.539062 -1.078125 4.59375 -0.953125 C 4.65625 -0.835938 4.734375 -0.75 4.828125 -0.6875 C 4.921875 -0.625 5.03125 -0.582031 5.15625 -0.5625 C 5.28125 -0.539062 5.414062 -0.53125 5.5625 -0.53125 L 5.84375 -0.53125 L 5.84375 0 L 1.90625 0 L 1.90625 -0.53125 L 2.1875 -0.53125 C 2.332031 -0.53125 2.46875 -0.539062 2.59375 -0.5625 C 2.71875 -0.582031 2.828125 -0.617188 2.921875 -0.671875 C 3.015625 -0.734375 3.085938 -0.820312 3.140625 -0.9375 C 3.203125 -1.050781 3.234375 -1.195312 3.234375 -1.375 L 3.234375 -8.421875 L 2.015625 -8.421875 C 1.828125 -8.421875 1.671875 -8.394531 1.546875 -8.34375 C 1.421875 -8.289062 1.316406 -8.210938 1.234375 -8.109375 C 1.160156 -8.015625 1.101562 -7.90625 1.0625 -7.78125 C 1.019531 -7.65625 0.992188 -7.523438 0.984375 -7.390625 L 0.90625 -6.84375 L 0.25 -6.84375 L 0.3125 -9.0625 L 7.453125 -9.0625 L 7.515625 -6.84375 L 6.859375 -6.84375 L 6.796875 -7.390625 C 6.785156 -7.523438 6.757812 -7.65625 6.71875 -7.78125 C 6.675781 -7.90625 6.613281 -8.015625 6.53125 -8.109375 C 6.457031 -8.210938 6.351562 -8.289062 6.21875 -8.34375 C 6.09375 -8.394531 5.9375 -8.421875 5.75 -8.421875 L 4.515625 -8.421875 Z M 4.515625 -1.4375 "/></g></g></g><g fill="#000000" fill-opacity="1"><g transform="translate(267.774197, 257.364168)"><g><path d="M 2.96875 -0.625 L 5.421875 -0.625 C 5.617188 -0.625 5.785156 -0.648438 5.921875 -0.703125 C 6.066406 -0.765625 6.1875 -0.84375 6.28125 -0.9375 C 6.382812 -1.03125 6.460938 -1.140625 6.515625 -1.265625 C 6.566406 -1.398438 6.601562 -1.535156 6.625 -1.671875 L 6.703125 -2.21875 L 7.375 -2.21875 L 7.28125 0 L 0.484375 0 L 0.484375 -0.53125 L 0.640625 -0.53125 C 0.785156 -0.53125 0.921875 -0.539062 1.046875 -0.5625 C 1.171875 -0.582031 1.28125 -0.617188 1.375 -0.671875 C 1.46875 -0.734375 1.539062 -0.820312 1.59375 -0.9375 C 1.65625 -1.050781 1.6875 -1.195312 1.6875 -1.375 L 1.6875 -7.609375 C 1.6875 -7.804688 1.660156 -7.960938 1.609375 -8.078125 C 1.554688 -8.203125 1.476562 -8.296875 1.375 -8.359375 C 1.28125 -8.429688 1.171875 -8.476562 1.046875 -8.5 C 0.921875 -8.519531 0.785156 -8.53125 0.640625 -8.53125 L 0.484375 -8.53125 L 0.484375 -9.0625 L 6.875 -9.0625 L 6.9375 -6.84375 L 6.28125 -6.84375 L 6.21875 -7.390625 C 6.195312 -7.523438 6.160156 -7.65625 6.109375 -7.78125 C 6.066406 -7.90625 6 -8.015625 5.90625 -8.109375 C 5.820312 -8.210938 5.710938 -8.289062 5.578125 -8.34375 C 5.453125 -8.394531 5.289062 -8.421875 5.09375 -8.421875 L 2.96875 -8.421875 L 2.96875 -5.046875 L 6.03125 -5.046875 L 6.03125 -4.421875 L 2.96875 -4.421875 Z M 2.96875 -0.625 "/></g></g></g></svg>